<svg id="Layer_1" data-name="Layer 1" xmlns="http://www.w3.org/2000/svg" viewBox="0 0 30.35 23.98"><defs><style>.cls-1{fill:#2a5182;}.cls-2{fill:#f8a940;}</style></defs><g id="Group_954" data-name="Group 954"><g id="Group_951" data-name="Group 951"><path id="Path_759" data-name="Path 759" class="cls-1" d="M110.75,111.83H89.59A4.6,4.6,0,0,1,85,107.24V99a4.6,4.6,0,0,1,4.59-4.6h2.67a3.23,3.23,0,0,0,2.32-1l4.23-4.23a4.56,4.56,0,0,1,3.25-1.35h8.69a4.6,4.6,0,0,1,4.6,4.6h0v14.79A4.6,4.6,0,0,1,110.75,111.83ZM89.59,95.71A3.28,3.28,0,0,0,86.31,99v8.25a3.28,3.28,0,0,0,3.28,3.28h21.16a3.28,3.28,0,0,0,3.28-3.28V92.45a3.28,3.28,0,0,0-3.28-3.28h-8.69a3.23,3.23,0,0,0-2.32,1l-4.23,4.24a4.59,4.59,0,0,1-3.25,1.34Z" transform="translate(-85 -87.85)"/></g><g id="Group_952" data-name="Group 952"><path id="Path_760" data-name="Path 760" class="cls-2" d="M108.12,106.55H103a2,2,0,0,1-2-2V99.45a2,2,0,0,1,2-2h5.13a2,2,0,0,1,2,2v5.13A2,2,0,0,1,108.12,106.55ZM103,98.79a.67.67,0,0,0-.66.66v5.13a.67.67,0,0,0,.66.66h5.13a.65.65,0,0,0,.66-.66V99.45a.66.66,0,0,0-.66-.66Z" transform="translate(-85 -87.85)"/></g><g id="Group_953" data-name="Group 953"><path id="Path_761" data-name="Path 761" class="cls-2" d="M106.82,98.11h-3.47V94.35a1.15,1.15,0,0,1,1.19-1.12h2.28A1.15,1.15,0,0,1,108,94.35V97A1.15,1.15,0,0,1,106.82,98.11Zm-2.15-1.31h2V94.54h-2Z" transform="translate(-85 -87.85)"/></g><circle id="Ellipse_186" data-name="Ellipse 186" class="cls-2" cx="20.82" cy="14.39" r="1"/></g></svg>