<?xml version="1.0" encoding="utf-8"?>
<!-- Generator: Adobe Illustrator 25.0.0, SVG Export Plug-In . SVG Version: 6.00 Build 0)  -->
<svg version="1.1" id="Layer_1" xmlns="http://www.w3.org/2000/svg" xmlns:xlink="http://www.w3.org/1999/xlink" x="0px" y="0px"
	 viewBox="0 0 24 24" style="enable-background:new 0 0 24 24;" xml:space="preserve">
<style type="text/css">
	.benefits-st0{fill:#62D2F9;}
	.benefits-st1{fill:#F9B65D;}
</style>
<g id="Group_1069" transform="translate(-21.834 -525.127)">
	<g id="Group_1066" transform="translate(21.834 530.221)">
		<path id="Path_862" class="benefits-st0" d="M21.81,7.18H1.61c-0.66,0-1.19-0.53-1.19-1.19V2.14c0-0.66,0.53-1.19,1.19-1.19h20.2
			c0.66,0,1.19,0.53,1.19,1.19v3.86C23,6.65,22.47,7.18,21.81,7.18z M1.61,2.11L1.58,5.99l20.24,0.03c0.02,0,0.03-0.01,0.03-0.03
			V2.14L1.61,2.11z"/>
	</g>
	<g id="Group_1067" transform="translate(22.911 535.615)">
		<path id="Path_863" class="benefits-st0" d="M19.56,12.99H1.69c-0.74,0-1.34-0.6-1.34-1.34V0.63H20.9v11.02
			C20.9,12.39,20.3,12.99,19.56,12.99z M1.51,1.79v9.86c0,0.1,0.08,0.19,0.19,0.19c0,0,0,0,0,0h17.87c0.1,0,0.19-0.08,0.19-0.19l0,0
			V1.79L1.51,1.79z"/>
	</g>
	<g id="Group_1068" transform="translate(26.877 525.127)">
		<path id="Path_864" class="benefits-st1" d="M7.24,22.9H6.09V7.22C3,7.2,0.5,5.08,0.18,4.04c-0.13-0.49-0.03-1,0.28-1.4
			C1.07,1.84,2,1.34,3.01,1.26c0.81,0.04,1.56,0.4,2.1,1C5.8,2.94,6.36,3.74,6.76,4.62C7.33,3.31,8.3,1.74,9.72,1.43
			c0.92-0.25,1.9-0.01,2.61,0.62c0.44,0.37,0.69,0.92,0.67,1.49c-0.26,1.82-2.49,3.2-5.76,3.6L7.24,22.9z M3.09,2.41H3.06
			C2.41,2.47,1.81,2.79,1.4,3.3C1.31,3.41,1.27,3.56,1.28,3.7c0.17,0.54,2.17,2.32,4.74,2.37C5.74,4.94,5.14,3.91,4.3,3.1
			C3.99,2.74,3.56,2.49,3.09,2.41z M10.46,2.51c-0.17,0-0.34,0.02-0.5,0.06C8.83,2.8,7.93,4.68,7.48,5.95
			c2.81-0.42,4.23-1.58,4.37-2.56c-0.07-0.22-0.21-0.42-0.4-0.56C11.17,2.61,10.82,2.5,10.46,2.51L10.46,2.51z"/>
	</g>
</g>
</svg>
