<?xml version="1.0" encoding="utf-8"?>
<!-- Generator: Adobe Illustrator 25.2.0, SVG Export Plug-In . SVG Version: 6.00 Build 0)  -->
<svg version="1.1" id="Layer_1" xmlns="http://www.w3.org/2000/svg" xmlns:xlink="http://www.w3.org/1999/xlink" x="0px" y="0px"
	 viewBox="0 0 24 24" style="enable-background:new 0 0 24 24;" xml:space="preserve">
<style type="text/css">
	.dashboard-st0{fill:none;}
	.dashboard-st1{fill:#62D2F9;}
	.dashboard-st2{fill:#ED0606;}
	.dashboard-st3{fill:#09EF03;}
	.dashboard-st4{fill:#F9B65D;}
</style>
<path class="dashboard-st0" d="M2.63,0.81c-1.03,0-1.88,0.84-1.88,1.88C0.75,1.66,1.6,0.81,2.63,0.81z"/>
<path class="dashboard-st1" d="M9.2,0.81H2.63c-1.03,0-1.88,0.85-1.88,1.88v5.63c0,1.03,0.85,1.88,1.88,1.88H9.2c1.03,0,1.88-0.85,1.88-1.88
	V2.69C11.08,1.66,10.24,0.81,9.2,0.81z M10.14,8.32c0,0.52-0.42,0.94-0.94,0.94H2.63c-0.52,0-0.94-0.42-0.94-0.94V2.69
	c0-0.52,0.42-0.94,0.94-0.94H9.2c0.52,0,0.94,0.42,0.94,0.94V8.32z"/>
<path class="dashboard-st2" d="M14.84,13.96c-1.03,0-1.88,0.84-1.88,1.88C12.96,14.8,13.8,13.96,14.84,13.96z"/>
<path class="dashboard-st1" d="M21.41,13.96h-6.57c-1.03,0-1.88,0.85-1.88,1.88v5.63c0,1.03,0.85,1.88,1.88,1.88h6.57
	c1.03,0,1.88-0.85,1.88-1.88v-5.63C23.29,14.8,22.44,13.96,21.41,13.96z M22.35,21.47c0,0.52-0.42,0.94-0.94,0.94h-6.57
	c-0.52,0-0.94-0.42-0.94-0.94v-5.63c0-0.52,0.42-0.94,0.94-0.94h6.57c0.52,0,0.94,0.42,0.94,0.94V21.47z"/>
<path class="dashboard-st3" d="M2.63,12.08c-1.03,0-1.88,0.84-1.88,1.88C0.75,12.93,1.6,12.08,2.63,12.08z"/>
<path class="dashboard-st1" d="M9.2,12.08H2.63c-1.03,0-1.88,0.85-1.88,1.88v7.51c0,1.03,0.85,1.88,1.88,1.88H9.2c1.03,0,1.88-0.85,1.88-1.88
	v-7.51C11.08,12.93,10.24,12.08,9.2,12.08z M10.14,21.47c0,0.52-0.42,0.94-0.94,0.94H2.63c-0.52,0-0.94-0.42-0.94-0.94v-7.51
	c0-0.52,0.42-0.94,0.94-0.94H9.2c0.52,0,0.94,0.42,0.94,0.94V21.47z"/>
<path class="dashboard-st0" d="M14.84,0.81c-1.03,0-1.88,0.84-1.88,1.88C12.96,1.66,13.8,0.81,14.84,0.81z"/>
<path class="dashboard-st4" d="M21.41,0.81h-6.57c-1.03,0-1.88,0.85-1.88,1.88v7.51c0,1.03,0.85,1.88,1.88,1.88h6.57
	c1.03,0,1.88-0.85,1.88-1.88V2.69C23.29,1.66,22.44,0.81,21.41,0.81z M22.35,10.2c0,0.52-0.42,0.94-0.94,0.94h-6.57
	c-0.52,0-0.94-0.42-0.94-0.94V2.69c0-0.52,0.42-0.94,0.94-0.94h6.57c0.52,0,0.94,0.42,0.94,0.94V10.2z"/>
</svg>
