<?xml version="1.0" encoding="utf-8"?>
<!-- Generator: Adobe Illustrator 25.2.0, SVG Export Plug-In . SVG Version: 6.00 Build 0)  -->
<svg version="1.0" id="Layer_1" xmlns="http://www.w3.org/2000/svg" xmlns:xlink="http://www.w3.org/1999/xlink" x="0px" y="0px"
	 viewBox="0 0 24 24" style="enable-background:new 0 0 24 24;" xml:space="preserve">
<style type="text/css">
	.st0{clip-path:url(#SVGID_2_);}
	.st1{fill:#007DC2;}
</style>
<g>
	<defs>
		<rect id="SVGID_1_" x="0.89" y="0.89" width="22.11" height="22.11"/>
	</defs>
	<clipPath id="SVGID_2_">
		<use xlink:href="#SVGID_1_"  style="overflow:visible;"/>
	</clipPath>
	<g id="Group_1886" transform="translate(0 0)" class="st0">
		<path id="Path_4042" class="st1" d="M22.41,10.51L22.41,10.51l-9.02-9.02c-0.79-0.8-2.08-0.8-2.88,0c0,0,0,0,0,0L1.49,10.5
			l-0.01,0.01c-0.79,0.8-0.79,2.09,0.01,2.88c0.36,0.36,0.84,0.57,1.35,0.59H2.9h0.36v6.64c0,1.32,1.07,2.38,2.38,2.38h3.53
			c0.36,0,0.65-0.29,0.65-0.65l0,0v-5.2c0-0.6,0.48-1.08,1.08-1.09h2.09c0.6,0,1.09,0.49,1.09,1.09v5.2c0,0.36,0.29,0.65,0.65,0.65
			h0h3.53c1.32,0,2.38-1.07,2.38-2.38v-6.64h0.33c1.12,0,2.04-0.91,2.04-2.04C23,11.41,22.79,10.89,22.41,10.51 M21.49,12.47
			c-0.14,0.14-0.33,0.22-0.53,0.22h-0.98c-0.36,0-0.65,0.29-0.65,0.65v0v7.28c0,0.6-0.49,1.09-1.09,1.09h-2.88v-4.56
			c0-1.32-1.06-2.39-2.38-2.39c0,0,0,0,0,0H10.9c-1.31,0.01-2.38,1.07-2.38,2.39v4.56H5.64c-0.6,0-1.09-0.49-1.09-1.09v-7.29
			c0-0.36-0.29-0.65-0.65-0.65h-1c-0.19,0-0.37-0.08-0.51-0.22c-0.29-0.29-0.29-0.76-0.01-1.05c0,0,0,0,0.01-0.01l0,0l9.02-9.01
			c0.29-0.29,0.76-0.29,1.05-0.01c0,0,0,0,0.01,0.01l9.01,9.02l0,0C21.78,11.71,21.78,12.18,21.49,12.47
			C21.49,12.47,21.49,12.48,21.49,12.47"/>
	</g>
</g>
</svg>
