<svg id="Layer_1" data-name="Layer 1" xmlns="http://www.w3.org/2000/svg" viewBox="0 0 30.26 18.07"><defs><style>.cls-1{fill:#f8a940;}.cls-2{fill:#2a5182;}.cls-3{fill:#62d2f9;}</style></defs><g id="Group_962" data-name="Group 962"><g id="Group_955" data-name="Group 955"><path id="Path_762" data-name="Path 762" class="cls-1" d="M100,108.87a18.67,18.67,0,0,1-5.36-.76A2.15,2.15,0,0,1,93.16,106v-3.19a2.2,2.2,0,0,1,.63-1.53l2.55-2.55a.72.72,0,0,1,1,1h0l-2.55,2.55a.74.74,0,0,0-.21.51V106a.71.71,0,0,0,.5.69,18.29,18.29,0,0,0,10.24,0,.7.7,0,0,0,.5-.69v-3a.74.74,0,0,0-.2-.5L103,99.8a.72.72,0,0,1,0-1,.72.72,0,0,1,1,0h0l2.62,2.66a2.19,2.19,0,0,1,.62,1.52v3a2.18,2.18,0,0,1-1.55,2.08A21.14,21.14,0,0,1,100,108.87Z" transform="translate(-85.05 -90.8)"/></g><g id="Group_956" data-name="Group 956"><path id="Path_763" data-name="Path 763" class="cls-1" d="M100.22,100.75a5,5,0,1,1,5-5A5,5,0,0,1,100.22,100.75Zm0-8.51a3.54,3.54,0,1,0,3.53,3.53A3.54,3.54,0,0,0,100.22,92.24Z" transform="translate(-85.05 -90.8)"/></g><g id="Group_957" data-name="Group 957"><path id="Path_764" data-name="Path 764" class="cls-2" d="M90.71,101.09a3.39,3.39,0,1,1,3.38-3.39A3.39,3.39,0,0,1,90.71,101.09Zm0-5.33a1.95,1.95,0,1,0,1.94,1.94,1.94,1.94,0,0,0-1.94-1.94h0Z" transform="translate(-85.05 -90.8)"/></g><g id="Group_958" data-name="Group 958"><path id="Path_765" data-name="Path 765" class="cls-3" d="M114,107.08" transform="translate(-85.05 -90.8)"/></g><g id="Group_959" data-name="Group 959"><path id="Path_766" data-name="Path 766" class="cls-2" d="M89.47,107.65a10.91,10.91,0,0,1-2.85-.42,2.17,2.17,0,0,1-1.57-2.08v-1.63a2.12,2.12,0,0,1,.63-1.53l1.49-1.48a.72.72,0,0,1,1,0,.72.72,0,0,1,0,1h0L86.7,103a.71.71,0,0,0-.21.51v1.63a.71.71,0,0,0,.52.69,9.08,9.08,0,0,0,2.7.37.71.71,0,0,1,.74.67v0a.72.72,0,0,1-.69.75Z" transform="translate(-85.05 -90.8)"/></g><g id="Group_960" data-name="Group 960"><path id="Path_767" data-name="Path 767" class="cls-2" d="M109.64,101.09A3.39,3.39,0,1,1,113,97.7,3.38,3.38,0,0,1,109.64,101.09Zm0-5.33a1.95,1.95,0,1,0,2,1.94,1.94,1.94,0,0,0-2-1.94h0Z" transform="translate(-85.05 -90.8)"/></g><g id="Group_961" data-name="Group 961"><path id="Path_768" data-name="Path 768" class="cls-2" d="M110.88,107.65h-.29a.73.73,0,0,1-.7-.75.7.7,0,0,1,.71-.69h0a8.81,8.81,0,0,0,2.7-.37.7.7,0,0,0,.52-.69v-1.62a.68.68,0,0,0-.21-.51l-1.49-1.49a.72.72,0,0,1,1-1h0l1.49,1.49a2.12,2.12,0,0,1,.63,1.53v1.62a2.15,2.15,0,0,1-1.57,2.08A10.62,10.62,0,0,1,110.88,107.65Z" transform="translate(-85.05 -90.8)"/></g></g></svg>