<?xml version="1.0" encoding="utf-8"?>
<!-- Generator: Adobe Illustrator 25.2.0, SVG Export Plug-In . SVG Version: 6.00 Build 0)  -->
<svg version="1.1" id="Layer_1" xmlns="http://www.w3.org/2000/svg" xmlns:xlink="http://www.w3.org/1999/xlink" x="0px" y="0px"
	 viewBox="0 0 30.02 29.99" style="enable-background:new 0 0 30.02 29.99;" xml:space="preserve">
<style type="text/css">
	.manageEmployee-st0{fill:none;}
	.manageEmployee-st1{fill:#F9B65D;}
	.manageEmployee-st2{fill:#62D2F9;}
</style>
<g>
	<path class="manageEmployee-st0" d="M22.62,1.82v0.42c0.42,0.13,0.84,0.31,1.23,0.51l0.3-0.3c0.71-0.71,1.86-0.71,2.57,0l0.88,0.87
		c0.71,0.71,0.71,1.87,0,2.58l-0.3,0.3c0.21,0.4,0.38,0.81,0.51,1.24h0.42c0,0,0.01,0,0.01,0c0.93,0.01,1.68,0.71,1.78,1.61V0H20.8
		C21.81,0,22.62,0.81,22.62,1.82z"/>
	<path class="manageEmployee-st1" d="M17.74,1.82v0.41c-0.43,0.14-0.84,0.31-1.24,0.52l-0.3-0.3c-0.71-0.71-1.86-0.71-2.57,0l-0.88,0.88
		c-0.71,0.71-0.71,1.86,0,2.57l0.3,0.3c-0.2,0.4-0.38,0.81-0.51,1.24h-0.42c-1-0.04-1.85,0.74-1.89,1.75c0,0.02,0,0.05,0,0.07v1.24
		c0,0.07,0,0.14,0,0.21c0.36-0.18,0.74-0.34,1.12-0.46v-1C11.34,8.89,11.64,8.59,12,8.58c0,0,0.01,0,0.01,0h0.85
		c0.27,0,0.5-0.17,0.57-0.43c0.18-0.62,0.45-1.21,0.8-1.75c0.13-0.23,0.09-0.51-0.09-0.7l-0.61-0.61c-0.25-0.26-0.25-0.68,0-0.94
		l0.88-0.87c0.26-0.26,0.67-0.26,0.93-0.01c0,0,0,0,0.01,0.01l0.6,0.6c0.19,0.18,0.47,0.22,0.7,0.09c0.55-0.32,1.15-0.57,1.77-0.73
		c0.26-0.07,0.44-0.3,0.44-0.56V1.82c-0.01-0.36,0.29-0.66,0.65-0.67c0,0,0.01,0,0.01,0h1.24c0.37,0.01,0.66,0.3,0.66,0.67v0.86
		c0,0.26,0.18,0.49,0.43,0.56c0.62,0.16,1.22,0.41,1.77,0.74c0.23,0.13,0.51,0.09,0.7-0.09l0.61-0.61c0.25-0.26,0.66-0.26,0.92-0.01
		c0,0,0.01,0.01,0.01,0.01l0.88,0.88C27,4.41,27,4.82,26.75,5.08c0,0-0.01,0.01-0.01,0.01l-0.61,0.6c-0.18,0.19-0.22,0.47-0.09,0.7
		c0.34,0.55,0.59,1.15,0.75,1.78c0.06,0.26,0.29,0.44,0.56,0.44h0.88c0.36-0.01,0.65,0.28,0.66,0.64c0,0.01,0,0.01,0,0.02v1.24
		c0,0.36-0.3,0.66-0.66,0.66h0h-0.85c-0.26-0.01-0.5,0.17-0.56,0.43c-0.16,0.62-0.41,1.22-0.74,1.77c-0.13,0.23-0.09,0.51,0.09,0.7
		l0.61,0.61c0.26,0.25,0.26,0.66,0.01,0.92c0,0-0.01,0.01-0.01,0.01l-0.88,0.88c-0.25,0.26-0.66,0.26-0.92,0.01
		c0,0-0.01-0.01-0.01-0.01l-0.61-0.61c-0.19-0.18-0.47-0.22-0.7-0.09c-0.55,0.33-1.15,0.58-1.77,0.74c-0.15,0.04-0.28,0.15-0.35,0.3
		c0.01,0.27,0.01,0.54,0,0.81c-0.01,0.68-0.1,1.35-0.28,2c0.77-0.22,1.3-0.92,1.3-1.72V17.5c0.43-0.13,0.84-0.3,1.24-0.51l0.3,0.3
		c0.71,0.71,1.87,0.71,2.58,0l0.87-0.88c0.71-0.71,0.71-1.86,0-2.57l-0.3-0.3c0.21-0.4,0.38-0.81,0.52-1.24h0.46
		c0.93-0.01,1.69-0.71,1.79-1.62V9.05c-0.1-0.9-0.85-1.61-1.78-1.61c0,0-0.01,0-0.01,0h-0.42c-0.13-0.43-0.3-0.84-0.51-1.24l0.3-0.3
		c0.71-0.71,0.71-1.87,0-2.58l-0.88-0.87c-0.71-0.71-1.86-0.71-2.57,0l-0.3,0.3c-0.39-0.2-0.81-0.38-1.23-0.51V1.82
		C22.62,0.81,21.81,0,20.8,0h-1.24C18.55,0,17.74,0.81,17.74,1.82z"/>
	<path class="manageEmployee-st1" d="M25.01,8.84c-0.49-2.26-2.48-3.89-4.79-3.9h-0.08c-2.72,0.02-4.91,2.22-4.91,4.94c0,0,0,0,0,0.07
		c0.49,0.05,0.97,0.15,1.44,0.3c0-0.13,0-0.25,0-0.37c-0.01-1.95,1.55-3.54,3.5-3.56s3.54,1.55,3.56,3.5
		c0.01,1.8-1.33,3.32-3.12,3.53c0.25,0.43,0.45,0.88,0.61,1.35C23.89,14.14,25.59,11.51,25.01,8.84z"/>
</g>
<g>
	<path class="manageEmployee-st0" d="M14.36,20.62c1.91,0,3.46-1.55,3.46-3.46c0.01-1.91-1.53-3.47-3.44-3.48c0,0-0.01,0-0.01,0l-0.01,0.02
		c-1.91,0-3.46,1.55-3.46,3.46C10.9,19.07,12.45,20.62,14.36,20.62z"/>
	<path class="manageEmployee-st0" d="M5.54,16.67c-1.05,0-1.9,0.85-1.9,1.9c0,1.05,0.85,1.9,1.9,1.9c1.05,0,1.9-0.85,1.9-1.9
		C7.44,17.52,6.59,16.67,5.54,16.67z"/>
	<polygon class="manageEmployee-st2" points="14.37,22.03 14.36,22.03 14.36,22.03 	"/>
	<path class="manageEmployee-st2" d="M5.54,15.25c-1.83,0-3.32,1.49-3.32,3.32c0,1.83,1.49,3.32,3.32,3.32c1.83,0,3.32-1.49,3.32-3.32
		C8.86,16.74,7.37,15.25,5.54,15.25z M5.54,20.47c-1.05,0-1.9-0.85-1.9-1.9c0-1.05,0.85-1.9,1.9-1.9c1.05,0,1.9,0.85,1.9,1.9
		C7.44,19.62,6.59,20.47,5.54,20.47z"/>
	<path class="manageEmployee-st2" d="M1.53,27.9c0.91,0.26,1.85,0.4,2.8,0.41v0.03h0.24c0.06,0.01,0.11,0.01,0.17,0c0.39-0.05,0.67-0.4,0.62-0.79
		c-0.05-0.39-0.4-0.67-0.79-0.62c-0.9,0.02-1.79-0.1-2.65-0.35c-0.3-0.09-0.51-0.37-0.51-0.68v-1.59c0-0.19,0.07-0.37,0.2-0.5
		l1.46-1.46c0.22-0.26,0.22-0.65,0-0.91c-0.25-0.3-0.7-0.34-1-0.09L0.62,22.8C0.22,23.2,0,23.74,0,24.3v1.6
		C0.02,26.83,0.64,27.64,1.53,27.9z"/>
	<path class="manageEmployee-st2" d="M20.68,22.68l-2.51-2.52c0.65-0.83,1.06-1.86,1.06-3c0-0.01,0-0.02,0-0.03c-0.01-2.7-2.2-4.87-4.9-4.86
		s-4.87,2.2-4.86,4.9c0,1.14,0.41,2.17,1.07,2.99l-2.43,2.43c-0.4,0.4-0.62,0.94-0.62,1.5v3.15c0.01,0.92,0.61,1.73,1.49,2
		c1.7,0.5,3.47,0.76,5.25,0.75l-0.03-0.05c1.88,0,3.76-0.27,5.57-0.78c0.89-0.26,1.51-1.07,1.52-2v-3
		C21.29,23.61,21.07,23.07,20.68,22.68z M14.36,13.7l0.01-0.02c0,0,0.01,0,0.01,0c1.91,0.01,3.45,1.57,3.44,3.48
		c0,1.91-1.55,3.46-3.46,3.46c-1.91,0-3.46-1.55-3.46-3.46C10.9,15.25,12.45,13.7,14.36,13.7z M19.88,27.22
		c0.01,0.3-0.19,0.58-0.48,0.67c-3.27,0.95-6.73,0.95-10,0c-0.3-0.09-0.5-0.37-0.49-0.68v-3.12c0-0.19,0.07-0.37,0.2-0.5l2.45-2.45
		c0.8,0.56,1.76,0.89,2.81,0.89c1.04,0,2-0.33,2.79-0.89l2.53,2.58c0.14,0.13,0.21,0.31,0.2,0.5V27.22z"/>
</g>
</svg>
