<?xml version="1.0" encoding="utf-8"?>
<!-- Generator: Adobe Illustrator 25.2.0, SVG Export Plug-In . SVG Version: 6.00 Build 0)  -->
<svg version="1.1" id="Layer_1" xmlns="http://www.w3.org/2000/svg" xmlns:xlink="http://www.w3.org/1999/xlink" x="0px" y="0px"
	 viewBox="0 0 47.63 64.77" style="enable-background:new 0 0 47.63 64.77;" xml:space="preserve">
<style type="text/css">
	.me1-st0{fill:#F9B65D;}
	.me1-st1{fill:#62D2F9;}
</style>
<g id="Group_1044">
	<g id="Group_1043">
		<path id="Path_846" class="me1-st0" d="M31.04,56.81l-3.77-3.73c-0.6-0.62-0.59-1.62,0.04-2.22c0.61-0.59,1.57-0.59,2.18,0l1.75,1.75
			l7.17-6c0.63-0.6,1.62-0.58,2.22,0.05c0.6,0.63,0.58,1.62-0.05,2.22c-0.05,0.05-0.11,0.1-0.17,0.14L31.04,56.81z"/>
	</g>
</g>
<g id="Group_1046">
	<g id="Group_1045">
		<path id="Path_847" class="me1-st1" d="M33.9,64.77c-7.58,0-13.73-6.15-13.73-13.73c0-7.58,6.15-13.73,13.73-13.73
			c7.58,0,13.73,6.15,13.73,13.73c0,0.01,0,0.03,0,0.04l0,0C47.6,58.64,41.46,64.76,33.9,64.77z M33.9,39.93
			c-6.14,0-11.11,4.97-11.11,11.11c0,6.14,4.97,11.11,11.11,11.11c6.12,0,11.09-4.95,11.11-11.07C45,44.95,40.03,39.98,33.9,39.97
			V39.93z"/>
	</g>
</g>
<g id="Group_1047">
	<path id="Path_848" class="me1-st1" d="M17.65,23.57C11.14,23.24,6.13,17.7,6.46,11.19C6.77,5.14,11.6,0.31,17.65,0
		c6.51,0.33,11.52,5.87,11.19,12.38C28.53,18.43,23.7,23.26,17.65,23.57z M17.65,2.63c-5.06,0.41-8.83,4.84-8.42,9.9
		c0.36,4.49,3.93,8.05,8.42,8.42c5.06-0.41,8.83-4.84,8.42-9.9C25.7,6.56,22.14,2.99,17.65,2.63z"/>
</g>
<g id="Group_1048">
	<path id="Path_849" class="me1-st1" d="M2.85,42.81c-0.15-0.09-0.24-0.26-0.23-0.44v-9.23c0.01-0.13,0.06-0.25,0.15-0.35l6.71-6.8
		l-1.9-1.84l-6.69,6.8C0.32,31.54,0,32.32,0,33.14v9.22c-0.02,1.19,0.65,2.29,1.72,2.82c4.96,2,10.28,2.96,15.62,2.8h1.23
		c0.18-0.9,0.44-1.79,0.78-2.64C13.73,45.72,8.1,44.86,2.85,42.81z"/>
</g>
<g id="Group_1049">
	<path id="Path_850" class="me1-st1" d="M34.82,35.44v-2.17c0-0.79-0.29-1.54-0.83-2.12l-6.43-7l-1.93,1.78l6.44,7
		c0.08,0.09,0.13,0.21,0.13,0.34v2.22c0.56-0.06,1.13-0.09,1.7-0.09C34.21,35.4,34.48,35.43,34.82,35.44z"/>
</g>
</svg>
