<?xml version="1.0" encoding="utf-8"?>
<!-- Generator: Adobe Illustrator 25.0.0, SVG Export Plug-In . SVG Version: 6.00 Build 0)  -->
<svg version="1.1" id="Layer_1" xmlns="http://www.w3.org/2000/svg" xmlns:xlink="http://www.w3.org/1999/xlink" x="0px" y="0px"
	 viewBox="0 0 24 24" style="enable-background:new 0 0 24 24;" xml:space="preserve">
<style type="text/css">
	.me-st0{fill:#F9B65D;}
	.me-st1{fill:#62D2F9;}
	.me-st2{fill:#FFFFFF;}
	.me-bg{fill: #000000;}
</style>
<g id="Group_1050" transform="translate(-22.868 -283.298)" class="bg">
	<g id="Group_1044" transform="translate(35.823 305.626)">
		<g id="Group_1043" transform="translate(0 0)">
			<path id="Path_846" class="me-st2" d="M0.9-1.29l-1.4-1.4c-0.23-0.23-0.23-0.6,0-0.82s0.6-0.23,0.82,0l0.65,0.65l2.66-2.22
				C3.88-5.28,4.25-5.25,4.45-5c0.21,0.25,0.17,0.61-0.07,0.82L0.9-1.29z"/>
		</g>
	</g>
	<g id="Group_1046" transform="translate(32.615 301.327)">
		<g id="Group_1045">
			<path id="Path_847" class="me-st2" d="M5.17,5.96c-2.81,0-5.08-2.28-5.08-5.08s2.28-5.08,5.08-5.08s5.08,2.28,5.08,5.08l0,0
				C10.25,3.68,7.98,5.95,5.17,5.96z M5.17-3.24c-2.27,0-4.11,1.84-4.11,4.11c0,2.27,1.84,4.11,4.11,4.11
				c2.27,0,4.11-1.84,4.11-4.11C9.28-1.4,7.44-3.23,5.17-3.24L5.17-3.24z"/>
		</g>
	</g>
	<g id="Group_1047" transform="translate(26.017 283.298)">
		<path id="Path_848" class="me-st2" d="M5.75,8.73C3.34,8.62,1.47,6.57,1.58,4.16C1.69,1.91,3.49,0.1,5.75,0
			c2.41,0.11,4.27,2.15,4.16,4.56C9.81,6.82,8,8.62,5.75,8.73z M5.75,0.97C3.87,1.11,2.47,2.75,2.61,4.62
			C2.74,6.3,4.07,7.63,5.75,7.76c1.87-0.14,3.28-1.77,3.14-3.65C8.76,2.43,7.43,1.1,5.75,0.97z"/>
	</g>
	<g id="Group_1048" transform="translate(22.868 294.967)">
		<path id="Path_849" class="me-st2" d="M3.42,4.19c-0.06-0.04-0.09-0.1-0.08-0.17V0.6c0-0.05,0.02-0.09,0.05-0.13l2.47-2.52L5.17-2.72
			L2.69-0.21C2.48,0.01,2.36,0.3,2.36,0.6v3.42C2.35,4.46,2.6,4.87,3,5.06C4.83,5.8,6.8,6.16,8.78,6.1c0.15,0,0.31-0.01,0.45-0.01
			C9.31,5.76,9.4,5.43,9.53,5.11C7.45,5.26,5.36,4.94,3.42,4.19z"/>
	</g>
	<g id="Group_1049" transform="translate(35.25 294.981)">
		<path id="Path_850" class="me-st2" d="M2.88,1.44V0.64c0-0.29-0.11-0.57-0.31-0.78L0.18-2.73l-0.71,0.66l2.38,2.58
			C1.89,0.55,1.9,0.59,1.9,0.64v0.83c0.21-0.02,0.42-0.04,0.63-0.04C2.65,1.43,2.76,1.44,2.88,1.44z"/>
	</g>
</g>
</svg>
