<?xml version="1.0" encoding="utf-8"?>
<!-- Generator: Adobe Illustrator 25.2.0, SVG Export Plug-In . SVG Version: 6.00 Build 0)  -->
<svg version="1.0" id="Layer_1" xmlns="http://www.w3.org/2000/svg" xmlns:xlink="http://www.w3.org/1999/xlink" x="0px" y="0px"
	 viewBox="0 0 21.28 22" style="enable-background:new 0 0 21.28 22;" xml:space="preserve">
<style type="text/css">
	.onboarding-st0{fill:#62D2F9;}
	.onboarding-st1{fill:#F9B65D;}
</style>
<path class="onboarding-st0" d="M4.96,2.92c-1.47,0-2.66,1.19-2.66,2.66c0,0.48,0.14,0.93,0.37,1.32L1.63,7.94C1.31,8.25,1.13,8.66,1.13,9.11
	v1.33c0,0.74,0.5,1.39,1.21,1.59c0.77,0.22,1.57,0.34,2.38,0.34c0.05,0,0.1,0,0.14,0l-0.02-0.97c-0.75,0.02-1.51-0.09-2.24-0.3
	c-0.29-0.09-0.5-0.36-0.5-0.67V9.11c0-0.18,0.08-0.36,0.2-0.49l0.98-0.98C3.74,8,4.32,8.23,4.96,8.23c1.47,0,2.66-1.19,2.66-2.66
	C7.61,4.11,6.42,2.92,4.96,2.92z M4.96,7.27c-0.93,0-1.69-0.76-1.69-1.69c0-0.93,0.76-1.69,1.69-1.69s1.69,0.76,1.69,1.69
	C6.65,6.51,5.89,7.27,4.96,7.27z"/>
<path class="onboarding-st0" d="M17.5,9.1l-2.11-2.25c0.54-0.67,0.87-1.51,0.87-2.44c0-2.18-1.78-3.96-3.96-3.96c-2.18,0-3.96,1.78-3.96,3.96
	c0,0.91,0.32,1.74,0.84,2.41L7.14,9.01c-0.31,0.31-0.48,0.73-0.48,1.17v2.6c-0.01,0.72,0.47,1.37,1.17,1.58
	c1.09,0.32,2.2,0.52,3.32,0.6c0.12-0.34,0.26-0.65,0.44-0.95c-1.18-0.06-2.35-0.24-3.5-0.58c-0.28-0.08-0.47-0.35-0.47-0.65v-2.61
	c0-0.18,0.07-0.36,0.19-0.48l2.15-2.11c0.66,0.49,1.46,0.78,2.34,0.78c0.89,0,1.69-0.31,2.35-0.81l2.16,2.23
	c0.13,0.14,0.2,0.31,0.2,0.49v1.41c0.34,0.08,0.66,0.18,0.97,0.32v-1.73C17.98,9.83,17.8,9.42,17.5,9.1z M12.31,7.4
	c-1.65,0-2.99-1.34-2.99-2.99c0-1.65,1.34-2.99,2.99-2.99c1.65,0,2.99,1.34,2.99,2.99C15.3,6.06,13.96,7.4,12.31,7.4z"/>
<g>
	<path class="onboarding-st1" d="M17.98,12c-0.31-0.14-0.63-0.24-0.97-0.32c-0.35-0.08-0.71-0.13-1.09-0.13c-1.84,0-3.44,0.99-4.33,2.46
		c-0.18,0.3-0.33,0.62-0.44,0.95c-0.18,0.52-0.3,1.07-0.3,1.66c0,2.79,2.27,5.07,5.07,5.07c2.79,0,5.07-2.28,5.07-5.07
		C20.99,14.56,19.74,12.79,17.98,12z M15.92,20.73c-2.26,0-4.1-1.84-4.1-4.1c0-0.58,0.13-1.12,0.34-1.62
		c0.15-0.36,0.38-0.68,0.62-0.98c0.75-0.91,1.87-1.51,3.15-1.51c0.38,0,0.74,0.07,1.09,0.16c0.33,0.09,0.63,0.22,0.92,0.39
		c1.25,0.71,2.1,2.03,2.1,3.55C20.02,18.89,18.18,20.73,15.92,20.73z"/>
	<path class="onboarding-st1" d="M17.51,16.15H16.4v-1.11c0-0.27-0.21-0.48-0.48-0.48s-0.48,0.21-0.48,0.48v1.11h-1.11
		c-0.27,0-0.48,0.21-0.48,0.48s0.21,0.48,0.48,0.48h1.11v1.11c0,0.27,0.21,0.48,0.48,0.48s0.48-0.21,0.48-0.48v-1.11h1.11
		c0.27,0,0.48-0.21,0.48-0.48S17.78,16.15,17.51,16.15z"/>
</g>
</svg>
