<svg id="Layer_1" data-name="Layer 1" xmlns="http://www.w3.org/2000/svg" viewBox="0 0 24.47 30.31"><defs><style>.payroll-cls-1{fill:none;}.payroll-cls-2{fill:#62d2f9;}.payroll-cls-3{fill:#f9b65d;}</style></defs><polygon class="payroll-cls-1" points="21.62 20.88 22.98 20.88 22.98 1.49 8.07 1.49 8.07 2.41 21.62 2.41 21.62 20.88"/><polygon class="payroll-cls-2" points="6.58 0 6.58 2.41 8.07 2.41 8.07 1.49 22.98 1.49 22.98 20.88 21.62 20.88 21.62 22.37 24.47 22.37 24.47 0 6.58 0"/><path class="payroll-cls-2" d="M92.6,77.36H88.26v2.89H84.53v22.1l2.9,2.91,2.13-2.13,2,2,2-2,2.05,2,2-2,2,2,2.74-2.75V99.73h3.73V77.36Zm8.33,24.37L99.68,103l-2-2-2,2-2.05-2-2,2-2-2-2.13,2.13L86,101.74v-20h14.91v20Zm3.73-5.9v2.41h-2.24v-18H89.75v-1.4h14.91Z" transform="translate(-84.53 -74.95)"/><path class="payroll-cls-3" d="M94.18,91.38V87.46a2.06,2.06,0,0,1,1.67,1.63l0,.13h1.23l0-.2a3,3,0,0,0-2.9-2.71V85.07H93v1.21a3,3,0,0,0-3,3c0,1.75,1.13,2.51,3,3v4.45a2.45,2.45,0,0,1-2-2l0-.16H89.75l0,.21A3.38,3.38,0,0,0,93,97.91V99.5h1.17V97.9a3.72,3.72,0,0,0,2.31-1,3,3,0,0,0,.83-2.2C97.32,93.06,96.4,92.07,94.18,91.38ZM96,94.8a1.81,1.81,0,0,1-1.84,2V92.66C95.69,93.2,96,93.92,96,94.8Zm-3-7.39v3.64C91.6,90.57,91.3,90,91.3,89.17A1.68,1.68,0,0,1,93,87.41Z" transform="translate(-84.53 -74.95)"/></svg>