<?xml version="1.0" encoding="utf-8"?>
<!-- Generator: Adobe Illustrator 25.2.0, SVG Export Plug-In . SVG Version: 6.00 Build 0)  -->
<svg version="1.1" id="Layer_1" xmlns="http://www.w3.org/2000/svg" xmlns:xlink="http://www.w3.org/1999/xlink" x="0px" y="0px"
	 viewBox="0 0 39.71 40" style="enable-background:new 0 0 39.71 40;" xml:space="preserve">
<style type="text/css">
	.performance-st0{fill:#62D2F9;}
	.performance-st1{fill:#F9B65D;}
</style>
<path class="performance-st0" d="M17.28,39.77c-0.55,0-1-0.45-1-1V17.33c0-0.55,0.45-1,1-1s1,0.45,1,1v21.42c0.01,0.55-0.43,1.01-0.98,1.02
	C17.29,39.77,17.29,39.77,17.28,39.77z"/>
<path class="performance-st0" d="M22.38,39.77c-0.55,0-1-0.45-1-1V12.63c0-0.55,0.45-1,1-1s1,0.45,1,1V38.8C23.36,39.34,22.92,39.77,22.38,39.77
	z"/>
<path class="performance-st0" d="M27.48,39.77c-0.55,0-1-0.45-1-1V14.96c0-0.55,0.45-1,1-1s1,0.45,1,1v23.79c0.01,0.55-0.43,1.01-0.98,1.02
	C27.49,39.77,27.49,39.77,27.48,39.77z"/>
<path class="performance-st0" d="M32.78,40c-0.55,0-1-0.45-1-1V12.63c0-0.55,0.45-1,1-1s1,0.45,1,1v26.4C33.76,39.57,33.32,40,32.78,40z"/>
<path class="performance-st1" d="M33.94,0c-0.55,0-1,0.45-1,1s0.45,1,1,1h1.85L27.3,8.8l-4.07-4.07l-6.56,5c-0.45,0.34-0.54,0.98-0.2,1.43
	c0.34,0.45,0.98,0.54,1.43,0.2l5.14-3.88l4.11,4.1l10.53-8.43v2.6c0,0.55,0.45,1,1,1c0.55,0,1-0.45,1-1V0H33.94z"/>
<path class="performance-st0" d="M9.18,27.9c-2.99,0-5.42-2.43-5.42-5.42c0-2.99,2.43-5.42,5.42-5.42c2.99,0,5.42,2.43,5.42,5.42l0,0
	C14.6,25.47,12.17,27.9,9.18,27.9z M9.18,19.1c-1.87,0.02-3.36,1.55-3.34,3.42c0.02,1.87,1.55,3.36,3.42,3.34
	c1.85-0.02,3.34-1.53,3.34-3.38c-0.01-1.87-1.53-3.39-3.4-3.38C9.19,19.1,9.19,19.1,9.18,19.1z"/>
<path class="performance-st0" d="M7.13,38.73c-1.58-0.02-3.14-0.25-4.66-0.69C1.01,37.62,0,36.29,0,34.77v-2.69c0-0.9,0.36-1.76,1-2.4l2.46-2.46
	c0.39-0.4,1.03-0.4,1.43-0.01c0.4,0.39,0.4,1.03,0.02,1.43l-2.46,2.45c-0.26,0.27-0.4,0.63-0.4,1v2.69c0.01,0.61,0.41,1.14,1,1.3
	c1.47,0.43,2.99,0.64,4.52,0.61l0,0c0.55,0,1,0.45,1,1s-0.45,1-1,1L7.13,38.73z"/>
<path class="performance-st0" d="M37.68,39.77c-0.55,0-1-0.45-1-1V8.83c0-0.55,0.45-1,1-1s1,0.45,1,1v29.92c0.01,0.55-0.43,1.01-0.98,1.02
	C37.69,39.77,37.69,39.77,37.68,39.77z"/>
</svg>
