<svg id="Layer_1" data-name="Layer 1" xmlns="http://www.w3.org/2000/svg" viewBox="0 0 36.24 34.86"><defs><style>.permissions-cls-1{fill:#62d2f9;}.permissions-cls-2{fill:#f9b65d;}</style></defs><path class="permissions-cls-1" d="M105.42,103.41H87.06a1.85,1.85,0,0,1-1.86-1.85V96.74a7.37,7.37,0,0,1,7.36-7.36h11.7a7.3,7.3,0,0,1,4.09,1.25l.59.39-.3.64a4.59,4.59,0,0,0-.46,2v.89l-.51.21a3.65,3.65,0,0,0-2.25,3.37ZM92.56,91a5.71,5.71,0,0,0-5.71,5.71v4.82a.21.21,0,0,0,.21.21h16.72V98.12a5.3,5.3,0,0,1,2.75-4.65,6.34,6.34,0,0,1,.33-1.81,5.7,5.7,0,0,0-2.6-.63Z" transform="translate(-85.2 -72.87)"/><path class="permissions-cls-1" d="M98.41,88.28a7.71,7.71,0,1,1,7.7-7.7A7.71,7.71,0,0,1,98.41,88.28Zm0-13.76a6.06,6.06,0,1,0,6.06,6.06A6.07,6.07,0,0,0,98.41,74.52Z" transform="translate(-85.2 -72.87)"/><path class="permissions-cls-2" d="M118.69,96.49V95.22a4.26,4.26,0,1,0-8.52,0v1.27a3.25,3.25,0,0,0-2.76,3.2v4.82a3.23,3.23,0,0,0,3.23,3.23h7.57a3.23,3.23,0,0,0,3.23-3.23V99.69A3.24,3.24,0,0,0,118.69,96.49Zm1.11,8a1.59,1.59,0,0,1-1.59,1.58h-7.57a1.58,1.58,0,0,1-1.58-1.58V99.69a1.58,1.58,0,0,1,1.58-1.58h1.17V95.22a2.62,2.62,0,1,1,5.23,0v2.89h1.17a1.59,1.59,0,0,1,1.59,1.58Z" transform="translate(-85.2 -72.87)"/><path class="permissions-cls-2" d="M114.85,100.65a.83.83,0,0,0-.82.83v1.65a.83.83,0,0,0,1.65,0v-1.65A.83.83,0,0,0,114.85,100.65Z" transform="translate(-85.2 -72.87)"/></svg>