<svg id="Layer_1" data-name="Layer 1" xmlns="http://www.w3.org/2000/svg" viewBox="0 0 26.68 26.89"><defs><style>.recruitment-cls-1{fill:#f9b65d;}.recruitment-cls-2{fill:#2a5182;}</style></defs><g id="Group_967" data-name="Group 967"><g id="Group_963" data-name="Group 963"><path id="Path_769" data-name="Path 769" class="recruitment-cls-1" d="M101.06,106.26a15.62,15.62,0,0,1-5.12-.8,1.42,1.42,0,0,1-1-1.34v-3.4a1.41,1.41,0,0,1,.41-1l2.38-2.38a.7.7,0,0,1,1,1l-2.38,2.38v3.42a15.63,15.63,0,0,0,9.66,0l0-3.3-2.45-2.5a.7.7,0,0,1-.11-1,.71.71,0,0,1,1-.11l.11.12L107,99.83a1.43,1.43,0,0,1,.41,1v3.26a1.44,1.44,0,0,1-1,1.36A18.24,18.24,0,0,1,101.06,106.26Z" transform="translate(-86.84 -86.4)"/></g><g id="Group_964" data-name="Group 964"><path id="Path_770" data-name="Path 770" class="recruitment-cls-1" d="M101.22,99.17a4.41,4.41,0,1,1,4.41-4.41A4.41,4.41,0,0,1,101.22,99.17Zm0-7.43a3,3,0,1,0,3,3,3,3,0,0,0-3-3Z" transform="translate(-86.84 -86.4)"/></g><g id="Group_965" data-name="Group 965"><path id="Path_771" data-name="Path 771" class="recruitment-cls-2" d="M100.9,111.63A12.62,12.62,0,1,1,113.52,99,12.62,12.62,0,0,1,100.9,111.63Zm0-23.84A11.22,11.22,0,1,0,112.12,99h0A11.23,11.23,0,0,0,100.9,87.79Z" transform="translate(-86.84 -86.4)"/></g><g id="Group_966" data-name="Group 966"><path id="Path_772" data-name="Path 772" class="recruitment-cls-2" d="M87.53,113.28a.69.69,0,0,1-.69-.71.67.67,0,0,1,.19-.47l3.26-3.26a.7.7,0,0,1,1,1L88,113.08A.7.7,0,0,1,87.53,113.28Z" transform="translate(-86.84 -86.4)"/></g></g></svg>