<svg id="Layer_1" data-name="Layer 1" xmlns="http://www.w3.org/2000/svg" viewBox="0 0 39.5 48.28"><defs><style>.reports-cls-1{fill:#62d2f9;}.reports-cls-2{fill:#f9b65d;}</style></defs><path class="reports-cls-1" d="M117.59,115.44H89.06A5.49,5.49,0,0,1,83.57,110V72.65a5.49,5.49,0,0,1,5.49-5.48h28.53a5.49,5.49,0,0,1,5.48,5.48V110A5.49,5.49,0,0,1,117.59,115.44ZM89.06,69.36a3.29,3.29,0,0,0-3.29,3.29V110a3.29,3.29,0,0,0,3.29,3.29h28.53a3.3,3.3,0,0,0,3.29-3.29V72.65a3.3,3.3,0,0,0-3.29-3.29Z" transform="translate(-83.57 -67.17)"/><path class="reports-cls-2" d="M98.93,101.18a9.88,9.88,0,1,1,9.88-9.87A9.88,9.88,0,0,1,98.93,101.18Zm0-17.56a7.69,7.69,0,1,0,7.68,7.69A7.7,7.7,0,0,0,98.93,83.62Z" transform="translate(-83.57 -67.17)"/><polygon class="reports-cls-2" points="9.55 30.61 8 29.05 14.26 22.79 14.26 16.46 16.46 16.46 16.46 23.7 9.55 30.61"/><path class="reports-cls-1" d="M116.49,107.76H90.16a1.1,1.1,0,1,1,0-2.19h26.33a1.1,1.1,0,1,1,0,2.19Z" transform="translate(-83.57 -67.17)"/><path class="reports-cls-1" d="M116.49,81.43H113.2a1.1,1.1,0,1,1,0-2.19h3.29a1.1,1.1,0,1,1,0,2.19Z" transform="translate(-83.57 -67.17)"/><path class="reports-cls-1" d="M116.49,88H113.2a1.1,1.1,0,1,1,0-2.19h3.29a1.1,1.1,0,1,1,0,2.19Z" transform="translate(-83.57 -67.17)"/><path class="reports-cls-1" d="M116.49,94.6H113.2a1.1,1.1,0,0,1,0-2.2h3.29a1.1,1.1,0,1,1,0,2.2Z" transform="translate(-83.57 -67.17)"/><path class="reports-cls-1" d="M116.49,101.18H113.2a1.1,1.1,0,1,1,0-2.19h3.29a1.1,1.1,0,1,1,0,2.19Z" transform="translate(-83.57 -67.17)"/></svg>