<svg id="Layer_1" data-name="Layer 1" xmlns="http://www.w3.org/2000/svg" viewBox="0 0 37.22 31.5"><defs><style>.roles-cls-1{fill:#62d2f9;}.roles-cls-2{fill:#f9b65d;}</style></defs><path class="roles-cls-1" d="M87,103.86a3.69,3.69,0,0,0,.63-2.07,3.74,3.74,0,1,0-7.48,0,3.7,3.7,0,0,0,.61,2l-1.49,1.49a1.82,1.82,0,0,0-.54,1.29v2.18A1.81,1.81,0,0,0,80,110.52a13,13,0,0,0,3.74.54,14.67,14.67,0,0,0,4-.56A1.82,1.82,0,0,0,89,108.74v-2.06a1.81,1.81,0,0,0-.53-1.28Zm-3.11-4.11a2,2,0,1,1-2.05,2A2.05,2.05,0,0,1,83.87,99.75Zm3.39,9.12a11.13,11.13,0,0,1-6.85-.09l0-2.27L82,105a3.66,3.66,0,0,0,1.91.54,3.72,3.72,0,0,0,1.87-.52l1.59,1.67Z" transform="translate(-78.71 -79.56)"/><path class="roles-cls-1" d="M100.44,103.86a3.74,3.74,0,1,0-6.86-2.07,3.7,3.7,0,0,0,.61,2l-1.49,1.49a1.85,1.85,0,0,0-.53,1.29v2.18a1.8,1.8,0,0,0,1.28,1.74,13.07,13.07,0,0,0,3.75.54,14.67,14.67,0,0,0,4-.56,1.83,1.83,0,0,0,1.31-1.76v-2.06a1.84,1.84,0,0,0-.52-1.28Zm-3.12-4.11a2,2,0,1,1-2,2A2.05,2.05,0,0,1,97.32,99.75Zm3.39,9.12a11.14,11.14,0,0,1-6.85-.09l0-2.27L95.42,105a3.63,3.63,0,0,0,1.9.54A3.76,3.76,0,0,0,99.2,105l1.59,1.67Z" transform="translate(-78.71 -79.56)"/><path class="roles-cls-1" d="M115.41,105.4l-1.52-1.54a3.74,3.74,0,1,0-6.85-2.07,3.62,3.62,0,0,0,.61,2l-1.49,1.49a1.82,1.82,0,0,0-.54,1.29v2.18a1.81,1.81,0,0,0,1.29,1.74,13,13,0,0,0,3.74.54,14.67,14.67,0,0,0,4-.56,1.83,1.83,0,0,0,1.31-1.76v-2.06A1.8,1.8,0,0,0,115.41,105.4Zm-4.63-5.65a2,2,0,1,1-2,2A2,2,0,0,1,110.78,99.75Zm3.38,9.12a11.14,11.14,0,0,1-6.85-.09l0-2.27,1.52-1.52a3.66,3.66,0,0,0,1.91.54,3.72,3.72,0,0,0,1.87-.52l1.59,1.67Z" transform="translate(-78.71 -79.56)"/><path class="roles-cls-2" d="M98.14,79.56a4.2,4.2,0,1,0,4.2,4.19A4.2,4.2,0,0,0,98.14,79.56Zm0,6.7a2.51,2.51,0,1,1,2.51-2.51A2.51,2.51,0,0,1,98.14,86.26Z" transform="translate(-78.71 -79.56)"/><polygon class="roles-cls-2" points="4.31 16.83 6 16.83 6 5.04 11.24 5.04 11.24 3.35 4.31 3.35 4.31 16.83"/><rect class="roles-cls-2" x="18.58" y="9.67" width="1.69" height="6.55"/><polygon class="roles-cls-2" points="27.02 3.35 27.02 5.04 32.26 5.04 32.26 16.83 33.95 16.83 33.95 3.35 27.02 3.35"/></svg>