<svg id="Layer_1" data-name="Layer 1" xmlns="http://www.w3.org/2000/svg" viewBox="0 0 23.19 23.19"><defs><style>.settings-cls-1{fill:#62d2f9;}.settings-cls-2{fill:#f9b65d;}</style></defs><path class="settings-cls-1" d="M102.15,104h-1.46a2.14,2.14,0,0,1-2.13-2.14v-.49a9.74,9.74,0,0,1-1.46-.6l-.35.35a2.14,2.14,0,0,1-3,0l-1-1a2.12,2.12,0,0,1,0-3l.34-.35a9.63,9.63,0,0,1-.6-1.45H92a2.14,2.14,0,0,1-2.14-2.14V91.67A2.14,2.14,0,0,1,92,89.54h.49a9.22,9.22,0,0,1,.6-1.45l-.34-.35a2.12,2.12,0,0,1,0-3l1-1a2.12,2.12,0,0,1,3,0l.35.35a8.84,8.84,0,0,1,1.46-.61v-.49a2.13,2.13,0,0,1,2.13-2.13h1.46a2.13,2.13,0,0,1,2.13,2.13v.49a8.84,8.84,0,0,1,1.46.61l.35-.35a2.13,2.13,0,0,1,3,0l1,1a2.14,2.14,0,0,1,0,3l-.35.35a9.22,9.22,0,0,1,.6,1.45h.49A2.14,2.14,0,0,1,113,91.67v1.46a2.14,2.14,0,0,1-2.14,2.14h-.49a9.63,9.63,0,0,1-.6,1.45l.35.35a2.14,2.14,0,0,1,0,3l-1,1a2.14,2.14,0,0,1-3,0l-.35-.35a9.74,9.74,0,0,1-1.46.6v.49A2.13,2.13,0,0,1,102.15,104Zm-4.82-4.66a7.56,7.56,0,0,0,2.08.86.68.68,0,0,1,.51.66v1a.77.77,0,0,0,.77.78h1.46a.77.77,0,0,0,.77-.78v-1a.68.68,0,0,1,.51-.66,7.56,7.56,0,0,0,2.08-.86.68.68,0,0,1,.83.11l.71.71a.78.78,0,0,0,1.1,0l1-1a.78.78,0,0,0,0-1.1l-.71-.71a.68.68,0,0,1-.1-.83,8.16,8.16,0,0,0,.86-2.07.68.68,0,0,1,.66-.51h1a.78.78,0,0,0,.78-.78V91.67a.78.78,0,0,0-.78-.77h-1a.68.68,0,0,1-.66-.51,8.23,8.23,0,0,0-.86-2.08.67.67,0,0,1,.1-.82l.71-.71a.78.78,0,0,0,0-1.1l-1-1a.78.78,0,0,0-1.1,0l-.71.71a.68.68,0,0,1-.83.1,8.23,8.23,0,0,0-2.08-.86.68.68,0,0,1-.51-.66v-1a.77.77,0,0,0-.77-.78h-1.46a.77.77,0,0,0-.77.78v1a.68.68,0,0,1-.51.66,8.23,8.23,0,0,0-2.08.86.68.68,0,0,1-.83-.1l-.71-.71a.76.76,0,0,0-1.09,0l-1,1a.78.78,0,0,0,0,1.1l.71.71a.67.67,0,0,1,.1.82,8.23,8.23,0,0,0-.86,2.08.68.68,0,0,1-.66.51H92a.78.78,0,0,0-.78.77v1.46a.78.78,0,0,0,.78.78h1a.68.68,0,0,1,.66.51,8.16,8.16,0,0,0,.86,2.07.68.68,0,0,1-.1.83l-.71.71a.78.78,0,0,0,0,1.1l1,1a.77.77,0,0,0,1.09,0l.71-.71a.68.68,0,0,1,.83-.11Z" transform="translate(-89.82 -80.81)"/><path class="settings-cls-2" d="M101.42,96.92a5,5,0,1,1,5-5A5,5,0,0,1,101.42,96.92Zm0-8.52A3.55,3.55,0,1,0,105,92,3.56,3.56,0,0,0,101.42,88.4Z" transform="translate(-89.82 -80.81)"/></svg>