<?xml version="1.0" encoding="utf-8"?>
<!-- Generator: Adobe Illustrator 25.2.0, SVG Export Plug-In . SVG Version: 6.00 Build 0)  -->
<svg version="1.1" id="Layer_1" xmlns="http://www.w3.org/2000/svg" xmlns:xlink="http://www.w3.org/1999/xlink" x="0px" y="0px"
	 viewBox="0 0 26.29 30.11" style="enable-background:new 0 0 26.29 30.11;" xml:space="preserve">
<style type="text/css">
	.time-st0{clip-path:url(#SVGID_2_);}
	.time-st1{fill:#F9B65D;}
	.time-st2{fill:#62D2F9;}
</style>
<g id="Group_2">
	<g>
		<defs>
			<rect id="SVGID_1_" x="0.01" width="26.28" height="30.1"/>
		</defs>
		<clipPath id="SVGID_2_">
			<use xlink:href="#SVGID_1_"  style="overflow:visible;"/>
		</clipPath>
		<g class="st0">
			<g id="Group_1">
				<path id="Path_1" class="time-st1" d="M13.26,12.55c1.01,0,1.83,0.82,1.83,1.83s-0.82,1.83-1.83,1.83c-1.01,0-1.83-0.82-1.83-1.83
					c0,0,0-0.01,0-0.01l0,0C11.44,13.36,12.25,12.55,13.26,12.55"/>
				<path id="Path_2" class="time-st1" d="M12.66,14.74L8.44,6.38l5.41,7.61L12.66,14.74z"/>
				<path id="Path_3" class="time-st2" d="M12.6-0.01C5.67-0.04,0.03,5.56,0,12.49s5.57,12.57,12.5,12.6c0.61,0,1.21-0.04,1.81-0.12v-2
					c-0.56,0.1-1.14,0.15-1.71,0.16c-5.87,0.03-10.66-4.7-10.69-10.57C1.88,6.69,6.61,1.9,12.48,1.87
					c5.87-0.03,10.66,4.7,10.69,10.57c0.01,0.67-0.05,1.34-0.17,2c0.67,0.27,1.27,0.69,1.76,1.22c1.72-6.69-2.31-13.5-8.99-15.22
					c0,0,0,0-0.01,0C14.73,0.15,13.67,0,12.6-0.01z"/>
				<path id="Path_4" class="time-st2" d="M20.95,30.1c-1.58,0.04-3.15-0.25-4.61-0.85c-0.42-0.2-0.68-0.63-0.67-1.09v-2.64
					c0-0.32,0.12-0.62,0.34-0.85l1.92-2c0.28-0.28,0.72-0.28,1,0s0.28,0.72,0,1l-1.91,2v2.42c2.54,0.87,5.31,0.87,7.85,0v-2.5
					l-1.8-1.88c-0.28-0.26-0.29-0.7-0.02-0.98c0.01-0.01,0.02-0.02,0.02-0.02c0.26-0.25,0.67-0.25,0.93,0l0,0l1.85,2
					c0.2,0.23,0.32,0.52,0.32,0.82v2.6c0.01,0.47-0.26,0.9-0.69,1.1c-1.47,0.6-3.04,0.89-4.63,0.85"/>
				<path id="Path_5" class="time-st2" d="M21.05,22.99c-2.04,0.11-3.78-1.46-3.89-3.5s1.46-3.78,3.5-3.89c2.04-0.11,3.78,1.46,3.89,3.5
					l0,0c0,0.06,0,0.13,0,0.19C24.59,21.27,23.03,22.92,21.05,22.99 M21.05,16.98c-1.28-0.11-2.4,0.83-2.51,2.11
					c-0.11,1.28,0.83,2.4,2.11,2.51c1.28,0.11,2.4-0.83,2.51-2.11c0,0,0,0,0,0l0,0c0.01-0.07,0.01-0.13,0-0.2
					c0.04-1.21-0.89-2.23-2.1-2.3"/>
			</g>
		</g>
	</g>
</g>
</svg>
