<svg id="Layer_1" data-name="Layer 1" xmlns="http://www.w3.org/2000/svg" viewBox="0 0 29.04 30.43"><defs><style>.cls-1{fill:#f9b65d;}.cls-2{fill:#2a5182;}</style></defs><g id="Group_968" data-name="Group 968"><path id="Path_773" data-name="Path 773" class="cls-1" d="M112.61,97h-9.74a2.08,2.08,0,0,1-2.09-2.09V86.71a2.1,2.1,0,0,1,2.09-2.09h9.74a2.09,2.09,0,0,1,2.08,2.09v8.18A2.08,2.08,0,0,1,112.61,97Zm-9.74-11a.7.7,0,0,0-.7.7h0v8.18a.7.7,0,0,0,.7.7h9.74a.7.7,0,0,0,.7-.7h0V86.71a.71.71,0,0,0-.7-.7h-9.74Z" transform="translate(-85.65 -84.62)"/></g><g id="Group_969" data-name="Group 969"><path id="Path_774" data-name="Path 774" class="cls-1" d="M107.74,104.8a.7.7,0,0,1-.7-.7h0V96.51l4.53,4.53a.71.71,0,0,1,.11,1,.7.7,0,0,1-1,.11.57.57,0,0,1-.11-.11l-2.16-2.16v4.23A.71.71,0,0,1,107.74,104.8Z" transform="translate(-85.65 -84.62)"/></g><g id="Group_970" data-name="Group 970"><path id="Path_775" data-name="Path 775" class="cls-1" d="M107.74,104.8a.7.7,0,0,1-.7-.7h0V99.87L104.88,102a.7.7,0,0,1-1-1l4.53-4.53v7.59A.71.71,0,0,1,107.74,104.8Z" transform="translate(-85.65 -84.62)"/></g><g id="Group_971" data-name="Group 971"><path id="Path_776" data-name="Path 776" class="cls-2" d="M89.93,115.05l-.28,0a2.18,2.18,0,0,1-1.49-1l-.08-.16V101.2h1.39v12.21a.65.65,0,0,0,.39.24,1.36,1.36,0,0,0,1-.51l.55-.53.48.6a1.33,1.33,0,0,0,.72.45.57.57,0,0,0,.33-.24V101.2h1.39v12.64l-.11.17a1.93,1.93,0,0,1-1.54,1,2.08,2.08,0,0,1-1.37-.48A2.32,2.32,0,0,1,89.93,115.05Z" transform="translate(-85.65 -84.62)"/></g><g id="Group_972" data-name="Group 972"><rect id="Rectangle_370" data-name="Rectangle 370" class="cls-2" x="4.97" y="21.23" width="1.39" height="7.78"/></g><g id="Group_973" data-name="Group 973"><path id="Path_777" data-name="Path 777" class="cls-2" d="M87.05,106.43h-1.4v-5.79a2.93,2.93,0,0,1,.76-2,2.59,2.59,0,0,1,2-.74v1.39a1.28,1.28,0,0,0-1,.32,1.56,1.56,0,0,0-.36,1Z" transform="translate(-85.65 -84.62)"/></g><g id="Group_974" data-name="Group 974"><path id="Path_778" data-name="Path 778" class="cls-2" d="M91.32,98.51a3.12,3.12,0,1,1,3.12-3.12A3.12,3.12,0,0,1,91.32,98.51Zm0-4.84a1.73,1.73,0,1,0,1.73,1.72h0a1.72,1.72,0,0,0-1.73-1.72Z" transform="translate(-85.65 -84.62)"/></g><g id="Group_975" data-name="Group 975"><rect id="Rectangle_371" data-name="Rectangle 371" class="cls-2" x="8.09" y="13.3" width="5.43" height="1.39"/></g></svg>