<?xml version="1.0" encoding="utf-8"?>
<!-- Generator: Adobe Illustrator 25.2.0, SVG Export Plug-In . SVG Version: 6.00 Build 0)  -->
<svg version="1.1" id="Layer_1" xmlns="http://www.w3.org/2000/svg" xmlns:xlink="http://www.w3.org/1999/xlink" x="0px" y="0px"
	 viewBox="0 0 42.05 42" style="enable-background:new 0 0 42.05 42;" xml:space="preserve">
<style type="text/css">
	.usermanagement-st0{fill:#62D2F9;}
	.usermanagement-st1{fill:#F9B65D;}
</style>
<g>
	<path class="usermanagement-st0" d="M28.9,31.81l-3.46-3.51c0.94-1.17,1.5-2.65,1.51-4.27c0,0,0-0.01,0-0.01c-0.01-3.77-3.07-6.83-6.84-6.82
		s-6.83,3.07-6.82,6.84c0,1.59,0.55,3.05,1.46,4.21l-3.44,3.44c-0.56,0.56-0.87,1.31-0.87,2.1v4.37c0.01,1.3,0.85,2.44,2.08,2.84
		c2.39,0.69,4.86,1.03,7.35,1c2.62-0.01,5.24-0.38,7.76-1.1c1.25-0.38,2.11-1.54,2.12-2.85v-4.16
		C29.75,33.11,29.44,32.37,28.9,31.81z M20.13,19.18c2.67,0.01,4.84,2.18,4.84,4.85c0,0,0,0.01,0,0.01
		c-0.01,2.68-2.18,4.85-4.86,4.84c-2.68-0.01-4.85-2.18-4.84-4.86C15.28,21.34,17.45,19.17,20.13,19.18z M27.77,38.1
		c0,0.43-0.28,0.8-0.68,0.94c-4.57,1.35-9.42,1.38-14,0.07c-0.43-0.14-0.7-0.55-0.68-1v-4.37c0-0.26,0.11-0.51,0.29-0.7l3.48-3.43
		c1.12,0.79,2.48,1.26,3.95,1.25c1.44,0,2.77-0.45,3.87-1.22l3.49,3.56c0.18,0.19,0.28,0.43,0.28,0.69V38.1z"/>
	<path class="usermanagement-st0" d="M12.41,26.04C12.41,26.04,12.41,26.03,12.41,26.04c-0.01-2.58-2.09-4.66-4.66-4.65
		c-2.57,0.01-4.65,2.09-4.64,4.66c0.01,2.57,2.09,4.65,4.66,4.64C10.33,30.68,12.4,28.6,12.41,26.04z M10.43,26.06
		c-0.01,1.47-1.21,2.67-2.68,2.66c-1.47-0.01-2.67-1.21-2.66-2.68c0.01-1.47,1.21-2.67,2.68-2.66v-0.04c0.01,0,0.01,0,0.02,0
		c1.47,0.02,2.66,1.23,2.64,2.7C10.43,26.05,10.43,26.05,10.43,26.06z"/>
	<path class="usermanagement-st0" d="M6.4,37.76c-1.25,0.02-2.51-0.15-3.71-0.5c-0.44-0.13-0.73-0.54-0.71-1v-2.23c0-0.26,0.11-0.51,0.29-0.7l2-2
		c0.08-0.06,0.14-0.12,0.2-0.2c0.33-0.44,0.24-1.07-0.2-1.4c-0.44-0.33-1.07-0.24-1.4,0.2l-2,2C0.32,32.49,0,33.24,0,34.03v2.23
		c0.01,1.33,0.89,2.49,2.16,2.86c1.27,0.36,2.59,0.55,3.91,0.57l0.4,0.07c0.55-0.02,0.98-0.48,0.97-1.04
		C7.42,38.17,6.95,37.74,6.4,37.76z"/>
</g>
<g>
	<path class="usermanagement-st1" d="M39.5,10.42h-0.59c-0.19-0.6-0.43-1.18-0.72-1.74l0.42-0.41c0.99-1,0.99-2.61,0-3.61l-1.23-1.23
		c-0.99-0.99-2.6-1-3.59-0.01c0,0-0.01,0.01-0.01,0.01l-0.42,0.42c-0.56-0.29-1.13-0.53-1.73-0.72V2.54C31.62,1.14,30.48,0,29.08,0
		h-1.74c-1.4,0-2.54,1.14-2.55,2.54v0.59c-0.6,0.19-1.17,0.43-1.73,0.72l-0.42-0.42c-1-0.99-2.6-0.99-3.6,0l-1.23,1.26
		c-0.99,1-0.99,2.61,0,3.61l0.42,0.41c-0.29,0.56-0.53,1.14-0.72,1.74h-0.59c-1.4,0-2.54,1.14-2.55,2.54v1.7
		c0.01,0.1,0.03,0.2,0.06,0.3c0.5-0.25,1.03-0.47,1.56-0.65v-1.38c0.01-0.51,0.42-0.92,0.93-0.92h1.2c0.37,0,0.69-0.25,0.78-0.61
		c0.22-0.87,0.55-1.7,1-2.48c0.2-0.32,0.15-0.74-0.12-1L18.93,7.1c-0.36-0.36-0.37-0.94-0.01-1.3c0,0,0.01-0.01,0.01-0.01l1.23-1.23
		c0.36-0.36,0.94-0.37,1.3-0.01c0,0,0.01,0.01,0.01,0.01l0.84,0.85c0.27,0.26,0.68,0.31,1,0.12c0.78-0.45,1.61-0.78,2.48-1
		c0.36-0.1,0.61-0.42,0.61-0.79v-1.2c0-0.51,0.41-0.92,0.92-0.92h1.74c0.51,0,0.92,0.41,0.92,0.92v1.2c0,0.37,0.25,0.7,0.61,0.79
		c0.87,0.22,1.7,0.55,2.48,1c0.32,0.19,0.73,0.14,1-0.12l0.84-0.85c0.36-0.36,0.94-0.37,1.3-0.01c0,0,0.01,0.01,0.01,0.01l1.23,1.23
		c0.36,0.36,0.37,0.94,0.01,1.3c0,0-0.01,0.01-0.01,0.01L36.6,7.95c-0.27,0.26-0.32,0.68-0.12,1c0.45,0.78,0.78,1.61,1,2.48
		c0.09,0.36,0.41,0.61,0.78,0.61h1.2c0.51,0,0.92,0.41,0.92,0.92v1.73c0,0.51-0.41,0.92-0.92,0.93h-1.2c-0.37,0-0.69,0.24-0.78,0.6
		c-0.22,0.87-0.55,1.7-1,2.48c-0.19,0.32-0.14,0.73,0.12,1l0.85,0.85c0.36,0.36,0.37,0.94,0.01,1.3c0,0-0.01,0.01-0.01,0.01
		l-1.23,1.22c-0.36,0.36-0.94,0.37-1.3,0.01c0,0-0.01-0.01-0.01-0.01l-0.84-0.84c-0.26-0.27-0.68-0.32-1-0.13
		c-0.78,0.45-1.61,0.78-2.48,1c-0.22,0.07-0.39,0.22-0.48,0.43c0,0.37,0.06,0.75,0.06,1.13c0,0.95-0.13,1.9-0.39,2.82
		c1.07-0.31,1.82-1.28,1.83-2.4V24.5c0.6-0.19,1.17-0.43,1.73-0.72l0.42,0.42c0.99,0.99,2.6,1,3.59,0.01c0,0,0.01-0.01,0.01-0.01
		l1.23-1.23c0.99-0.99,1-2.6,0.01-3.59c0,0-0.01-0.01-0.01-0.01l-0.42-0.42c0.29-0.55,0.53-1.13,0.72-1.73h0.59
		c1.41,0.01,2.56-1.12,2.57-2.53c0,0,0,0,0,0v-1.73C42.04,11.56,40.9,10.42,39.5,10.42z"/>
	<path class="usermanagement-st1" d="M34.98,12.37c-0.68-3.2-3.5-5.49-6.77-5.49v0.03c-3.82,0.01-6.91,3.1-6.92,6.92c0,0,0,0.07,0,0.1
		c0.68,0.07,1.35,0.21,2,0.42c-0.03-0.17-0.04-0.35-0.05-0.52c-0.02-2.73,2.17-4.96,4.9-4.98c2.73-0.02,4.96,2.17,4.98,4.9
		c0.02,2.51-1.85,4.64-4.34,4.95c0.35,0.6,0.64,1.23,0.86,1.88C33.38,19.78,35.77,16.11,34.98,12.37z"/>
</g>
</svg>
