<svg id="Layer_1" data-name="Layer 1" xmlns="http://www.w3.org/2000/svg" viewBox="0 0 24.71 30.53"><defs><style>.cls-1{fill:#2a5182;}.cls-2{fill:#f9b65d;}</style></defs><g id="Group_1001" data-name="Group 1001"><path id="Path_800" data-name="Path 800" class="cls-1" d="M110.35,115.1H90a2.18,2.18,0,0,1-2.18-2.18V86.76A2.18,2.18,0,0,1,90,84.58h15.38a2.14,2.14,0,0,1,1.55.63l5,5a2.17,2.17,0,0,1,.64,1.54v21.2A2.19,2.19,0,0,1,110.35,115.1ZM90,86a.73.73,0,0,0-.73.73v26.16a.73.73,0,0,0,.73.73h20.35a.74.74,0,0,0,.73-.73V91.72a.73.73,0,0,0-.22-.52l-5-5a.67.67,0,0,0-.51-.21Z" transform="translate(-87.82 -84.58)"/></g><g id="Group_1002" data-name="Group 1002"><path id="Path_801" data-name="Path 801" class="cls-1" d="M104.81,91.65H92.91a.71.71,0,0,1-.7-.75.72.72,0,0,1,.7-.7h11.9a.73.73,0,0,1,.75.7.71.71,0,0,1-.69.75Z" transform="translate(-87.82 -84.58)"/></g><path id="Path_802" data-name="Path 802" class="cls-1" d="M97.51,96h-4.6a.72.72,0,0,0-.7.75.73.73,0,0,0,.7.7h4.6Z" transform="translate(-87.82 -84.58)"/><g id="Group_1003" data-name="Group 1003"><path id="Path_803" data-name="Path 803" class="cls-1" d="M104.81,94.56H92.91a.71.71,0,0,1-.7-.75.72.72,0,0,1,.7-.7h11.9a.72.72,0,0,1,.75.7.71.71,0,0,1-.69.75Z" transform="translate(-87.82 -84.58)"/></g><path id="Path_804" data-name="Path 804" class="cls-2" d="M100.17,109a6.89,6.89,0,1,1,6.88-6.89h0A6.89,6.89,0,0,1,100.17,109Zm0-12.33a5.44,5.44,0,1,0,5.43,5.44,5.45,5.45,0,0,0-5.43-5.44Z" transform="translate(-87.82 -84.58)"/><g id="Group_1004" data-name="Group 1004"><path id="Path_805" data-name="Path 805" class="cls-2" d="M99.45,104.47l-2-2a.72.72,0,0,1,1-1l.94.94,3-3a.72.72,0,0,1,1,1h0Z" transform="translate(-87.82 -84.58)"/></g><g id="Group_1005" data-name="Group 1005"><path id="Path_806" data-name="Path 806" class="cls-2" d="M91.69,111.43a.73.73,0,0,1-.72-.73.69.69,0,0,1,.21-.51l4.37-4.37a.73.73,0,0,1,1,1l-4.37,4.36A.7.7,0,0,1,91.69,111.43Z" transform="translate(-87.82 -84.58)"/></g></svg>