<?xml version="1.0" encoding="utf-8"?>
<!-- Generator: Adobe Illustrator 25.0.1, SVG Export Plug-In . SVG Version: 6.00 Build 0)  -->
<svg version="1.1" id="Layer_1" xmlns="http://www.w3.org/2000/svg" xmlns:xlink="http://www.w3.org/1999/xlink" x="0px" y="0px"
	 viewBox="0 0 195.9 80.6" style="enable-background:new 0 0 195.9 80.6;" xml:space="preserve">
<style type="text/css">
	.st0{fill:#0082CA;}
	.st1{enable-background:new    ;}
	.st2{fill:#FFFFFF;}
</style>
<path id="Path_1" class="st0" d="M51.4,0L0,80.6c25.6-28.4,69.4-30.7,97.8-5.1c0,0,0,0,0,0c1.7,1.6,3.4,3.3,5,5.1L51.4,0z
	 M51.7,43.7h-0.7c-5.3,0.1-10.5,1.2-15.4,3.3l15.7-25.8L67,47C62.1,44.9,56.9,43.7,51.7,43.7z"/>
<g id="Aura">
	<g class="st1">
		<path class="st2" d="M125,45.7h-11l-2.1,6.3h-6.7l11.4-30.6h5.8L133.8,52h-6.7L125,45.7z M115.6,40.6h7.6l-3.8-11.4L115.6,40.6z"
			/>
	</g>
	<g class="st1">
		<path class="st2" d="M149.6,49.7c-1.5,1.8-3.6,2.7-6.2,2.7c-2.4,0-4.3-0.7-5.6-2.1c-1.3-1.4-1.9-3.5-2-6.2V29.3h6.1V44
			c0,2.4,1.1,3.6,3.2,3.6c2.1,0,3.5-0.7,4.2-2.1V29.3h6.1V52h-5.7L149.6,49.7z"/>
	</g>
	<g class="st1">
		<path class="st2" d="M172.9,35c-0.8-0.1-1.6-0.2-2.2-0.2c-2.3,0-3.8,0.8-4.5,2.3V52h-6.1V29.3h5.7L166,32c1.2-2.1,2.9-3.1,5.1-3.1
			c0.7,0,1.3,0.1,1.9,0.3L172.9,35z"/>
	</g>
	<g class="st1">
		<path class="st2" d="M188.3,52c-0.3-0.5-0.5-1.2-0.6-2c-1.5,1.6-3.4,2.5-5.7,2.5c-2.2,0-4.1-0.6-5.5-1.9c-1.5-1.3-2.2-2.9-2.2-4.9
			c0-2.4,0.9-4.3,2.7-5.5c1.8-1.3,4.4-1.9,7.7-2h2.8v-1.3c0-1.1-0.3-1.9-0.8-2.5c-0.5-0.6-1.4-0.9-2.6-0.9c-1,0-1.8,0.2-2.4,0.7
			c-0.6,0.5-0.9,1.2-0.9,2h-6.1c0-1.3,0.4-2.5,1.2-3.7c0.8-1.1,2-2,3.4-2.6c1.5-0.6,3.1-1,5-1c2.8,0,5,0.7,6.7,2.1
			c1.6,1.4,2.5,3.4,2.5,5.9v9.8c0,2.2,0.3,3.8,0.9,4.9V52H188.3z M183.3,47.8c0.9,0,1.7-0.2,2.5-0.6c0.8-0.4,1.3-0.9,1.7-1.6v-3.9
			h-2.3c-3,0-4.7,1-4.8,3.1l0,0.4c0,0.8,0.3,1.4,0.8,1.9S182.4,47.8,183.3,47.8z"/>
	</g>
</g>
</svg>
