<svg id="Layer_1" data-name="Layer 1" xmlns="http://www.w3.org/2000/svg" viewBox="0 0 32.5 32.5"><defs><style>.cls-1{fill:#f9b65d;}.cls-2{fill:#62d2f9;}</style></defs><polygon class="cls-1" points="22.9 21.82 17.02 17.41 17.02 11.61 15.48 11.61 15.48 17.41 9.6 21.82 10.52 23.06 16.25 18.77 21.98 23.06 22.9 21.82"/><path class="cls-2" d="M98.25,89.88a6.19,6.19,0,1,1,6.19-6.19A6.2,6.2,0,0,1,98.25,89.88Zm0-10.83a4.64,4.64,0,1,0,4.64,4.64A4.64,4.64,0,0,0,98.25,79.05Z" transform="translate(-82 -77.5)"/><path class="cls-2" d="M88.19,110a6.19,6.19,0,1,1,6.19-6.19A6.2,6.2,0,0,1,88.19,110Zm0-10.83a4.64,4.64,0,1,0,4.64,4.64A4.64,4.64,0,0,0,88.19,99.17Z" transform="translate(-82 -77.5)"/><path class="cls-2" d="M108.31,110a6.19,6.19,0,1,1,6.19-6.19A6.2,6.2,0,0,1,108.31,110Zm0-10.83a4.64,4.64,0,1,0,4.64,4.64A4.64,4.64,0,0,0,108.31,99.17Z" transform="translate(-82 -77.5)"/></svg>