<svg id="Layer_1" data-name="Layer 1" xmlns="http://www.w3.org/2000/svg" viewBox="0 0 29.9 30.02"><defs><style>.cls-1{fill:#2a5182;}.cls-2{fill:#f9b65d;}</style></defs><g id="Group_1011" data-name="Group 1011"><g id="Group_1007" data-name="Group 1007"><path id="Path_807" data-name="Path 807" class="cls-1" d="M106.89,102.52l.18,0L103,98.41a.67.67,0,0,0-1,0,.68.68,0,0,0,0,1h0l3.47,3.53A2.67,2.67,0,0,1,106.89,102.52Z" transform="translate(-85.23 -84.82)"/><path id="Path_808" data-name="Path 808" class="cls-1" d="M105.83,113.46a2.49,2.49,0,0,1-2-.82,31.83,31.83,0,0,1-16-.4,1.77,1.77,0,0,1-1.25-1.72V105a1.8,1.8,0,0,1,.53-1.27l4.39-4.39a.68.68,0,0,0-1-1l-4.38,4.39a3.13,3.13,0,0,0-.93,2.23v5.5a3.14,3.14,0,0,0,2.22,3,31.62,31.62,0,0,0,9.07,1.29,35.81,35.81,0,0,0,9.65-1.36l.17-.06A2.92,2.92,0,0,1,105.83,113.46Z" transform="translate(-85.23 -84.82)"/></g><g id="Group_1008" data-name="Group 1008"><path id="Path_809" data-name="Path 809" class="cls-1" d="M96.83,100.85a8,8,0,1,1,8-8h0A8,8,0,0,1,96.83,100.85Zm0-14.66a6.65,6.65,0,1,0,6.65,6.65h0a6.66,6.66,0,0,0-6.65-6.65Z" transform="translate(-85.23 -84.82)"/></g><g id="Group_1009" data-name="Group 1009"><path id="Path_810" data-name="Path 810" class="cls-1" d="M96.83,100.35H95.58v6.08l1.25,2.48,1.23-2.45v-6.11Z" transform="translate(-85.23 -84.82)"/></g><path id="Path_811" data-name="Path 811" class="cls-2" d="M106.74,114.83a6.51,6.51,0,1,1,0-13,6.15,6.15,0,0,1,1.76.26l.7.2-1.8,5.06h5.79l0,.65a1.87,1.87,0,0,1,0,.34A6.52,6.52,0,0,1,106.74,114.83Zm0-11.66a5.15,5.15,0,1,0,5.13,5.52h-6.41l2-5.46a3.79,3.79,0,0,0-.67-.06Z" transform="translate(-85.23 -84.82)"/><g id="Group_1010" data-name="Group 1010"><path id="Path_812" data-name="Path 812" class="cls-2" d="M115.13,106.27h-6L111,101l.61.18a4.75,4.75,0,0,1,3.47,4.33Zm-4-1.36h2.53a3.39,3.39,0,0,0-1.76-2.15Z" transform="translate(-85.23 -84.82)"/></g></g></svg>