<svg id="Layer_1" data-name="Layer 1" xmlns="http://www.w3.org/2000/svg" viewBox="0 0 24.37 30.1"><defs><style>.cls-1{fill:#2a5182;}.cls-2{fill:#f9b65d;}</style></defs><g id="Group_982" data-name="Group 982"><g id="Group_977" data-name="Group 977"><path id="Path_779" data-name="Path 779" class="cls-1" d="M110.21,114.89H90.14A2.15,2.15,0,0,1,88,112.74V86.94a2.15,2.15,0,0,1,2.15-2.15h15.17a2.16,2.16,0,0,1,1.52.63l4.9,4.89a2.18,2.18,0,0,1,.63,1.52v20.91A2.16,2.16,0,0,1,110.21,114.89ZM90.14,86.22a.72.72,0,0,0-.72.72v25.8a.71.71,0,0,0,.72.71h20.07a.73.73,0,0,0,.72-.71V91.83a.76.76,0,0,0-.21-.5l-4.9-4.9a.74.74,0,0,0-.51-.21Z" transform="translate(-87.99 -84.79)"/></g><g id="Group_978" data-name="Group 978"><path id="Path_780" data-name="Path 780" class="cls-1" d="M103.31,100.37H93a.72.72,0,0,1-.69-.75.7.7,0,0,1,.69-.68h10.3a.72.72,0,0,1,.75.68.73.73,0,0,1-.69.75Z" transform="translate(-87.99 -84.79)"/></g><g id="Group_979" data-name="Group 979"><path id="Path_781" data-name="Path 781" class="cls-1" d="M98.88,103.9H93a.72.72,0,0,1,0-1.43h5.87a.72.72,0,0,1,0,1.43Z" transform="translate(-87.99 -84.79)"/></g><g id="Group_980" data-name="Group 980"><path id="Path_782" data-name="Path 782" class="cls-2" d="M101.55,111.57,99,109a.71.71,0,0,1,1-1l1.59,1.58,4.57-4.56a.71.71,0,0,1,1,1h0Z" transform="translate(-87.99 -84.79)"/></g><g id="Group_981" data-name="Group 981"><path id="Path_783" data-name="Path 783" class="cls-1" d="M103,96.26h-8.6a2.15,2.15,0,0,1-2.15-2.15V92.67a2.15,2.15,0,0,1,2.15-2.15H103a2.15,2.15,0,0,1,2.15,2.15v1.44A2.15,2.15,0,0,1,103,96.26ZM94.44,92a.73.73,0,0,0-.72.71v1.44a.73.73,0,0,0,.72.71H103a.71.71,0,0,0,.72-.71V92.67A.71.71,0,0,0,103,92Z" transform="translate(-87.99 -84.79)"/></g></g></svg>