<?xml version="1.0" encoding="utf-8"?>
<!-- Generator: Adobe Illustrator 25.2.0, SVG Export Plug-In . SVG Version: 6.00 Build 0)  -->
<svg version="1.0" id="Layer_1" xmlns="http://www.w3.org/2000/svg" xmlns:xlink="http://www.w3.org/1999/xlink" x="0px" y="0px"
	 viewBox="0 0 100 100" style="enable-background:new 0 0 100 100;" xml:space="preserve">
<style type="text/css">
	.st0{fill:#D9F5FC;}
	.st1{fill:#62D2F9;}
	.st2{fill:#F9B65D;}
</style>
<g>
	<path class="st0" d="M44.03,80.05H32.18c5.27,3.17,11.44,5,18.03,5c5.47,0,10.65-1.26,15.27-3.5H48.29
		C46.7,81.55,45.22,81.01,44.03,80.05z"/>
	<path class="st0" d="M21.69,38.72l7.51-7.51c0.95-0.95,2.23-1.48,3.57-1.48h22.4c2.79,0,5.05,2.26,5.05,5.05v6.62
		c1.19-0.98,2.69-1.54,4.31-1.54c0,0,0,0,0,0c2.46,0,4.66,1.27,5.89,3.4l11.94,20.68c1.84-4.25,2.86-8.94,2.86-13.87
		c0-19.33-15.67-35-35-35s-35,15.67-35,35c0,6.6,1.83,12.77,5,18.03v-25.8C20.21,40.95,20.74,39.66,21.69,38.72z"/>
	<path class="st1" d="M55.16,29.73h-22.4c-1.34,0-2.62,0.53-3.57,1.48l-7.51,7.51c-0.95,0.95-1.48,2.23-1.48,3.57v25.8v6.92
		c0,2.79,2.26,5.05,5.05,5.05h6.92h11.86c-0.64-0.52-1.2-1.15-1.63-1.9c-1.23-2.13-1.23-4.67,0-6.8l16.23-28.1
		c0.42-0.73,0.96-1.34,1.58-1.85v-6.62C60.21,31.99,57.95,29.73,55.16,29.73z"/>
	<path class="st2" d="M84.9,72.35l-3.6-6.24L68.67,44.25c-0.87-1.5-2.42-2.4-4.16-2.4s-3.29,0.9-4.16,2.4l-0.16,0.27L44.14,72.35
		c-0.87,1.5-0.87,3.3,0,4.8c0.87,1.5,2.42,2.4,4.16,2.4h9.02h11.72h11.71c1.73,0,3.29-0.9,4.16-2.4
		C85.77,75.65,85.77,73.86,84.9,72.35z M62.99,54.32c0.1-0.63,0.45-0.85,0.96-0.41c0.23,0.2,0.49,0.45,0.64,0.8
		c0.3,0.65,0.48,1.65,0.37,3.07c-0.22,2.81-0.5,7.27-0.5,10.32c-0.02,0.51-0.16,0.69-0.73,0.47c-0.37-0.14-0.72-0.42-0.98-0.98
		c-0.15-0.32-0.29-0.87-0.33-1.58C62.2,63.14,62.41,57.63,62.99,54.32z M64.99,72.4c-0.17,0.61-1.11,0.87-1.82,0.41
		c-0.29-0.2-0.55-0.47-0.66-0.7c-0.27-0.6-0.13-1.45,0.42-1.7c0.42-0.19,1.01-0.1,1.5,0.29C64.97,71.18,65.08,71.91,64.99,72.4z"/>
</g>
</svg>
