<svg id="Capa_1" data-name="Capa 1" xmlns="http://www.w3.org/2000/svg" viewBox="0 0 512 490.75"><defs><style>.cls-1{fill:#4caf50;}.cls-2{fill:#fafafa;}</style></defs><path class="cls-1" d="M294.66,13a10.7,10.7,0,0,0-9.05-2.13L8.28,74.88A10.67,10.67,0,0,0,0,85.38V448a10.66,10.66,0,0,0,9.05,10.54l277.33,42.67a10.67,10.67,0,0,0,12.16-8.92,11.06,11.06,0,0,0,.13-1.62V21.38A10.69,10.69,0,0,0,294.66,13Z" transform="translate(0 -10.63)"/><path class="cls-1" d="M501.33,458.71H288a10.67,10.67,0,1,1,0-21.33H490.67V74.71H288a10.67,10.67,0,1,1,0-21.33H501.33A10.67,10.67,0,0,1,512,64V448A10.67,10.67,0,0,1,501.33,458.71Z" transform="translate(0 -10.63)"/><path class="cls-2" d="M202.67,352a10.67,10.67,0,0,1-9-5L87,176.36a10.66,10.66,0,0,1,17.72-11.87c.13.19.25.39.37.59L211.71,335.74a10.65,10.65,0,0,1-9,16.3Z" transform="translate(0 -10.63)"/><path class="cls-2" d="M96,352a10.66,10.66,0,0,1-9-16.32L193.64,165.06a10.67,10.67,0,0,1,18.46,10.69c-.12.2-.24.4-.37.59L105.07,347A10.66,10.66,0,0,1,96,352Z" transform="translate(0 -10.63)"/><path class="cls-1" d="M373.33,458.71A10.67,10.67,0,0,1,362.67,448V64A10.67,10.67,0,0,1,384,64V448A10.67,10.67,0,0,1,373.33,458.71Z" transform="translate(0 -10.63)"/><path class="cls-1" d="M501.33,394.71H288a10.67,10.67,0,1,1,0-21.33H501.33a10.67,10.67,0,1,1,0,21.33Z" transform="translate(0 -10.63)"/><path class="cls-1" d="M501.33,330.71H288a10.67,10.67,0,1,1,0-21.33H501.33a10.67,10.67,0,1,1,0,21.33Z" transform="translate(0 -10.63)"/><path class="cls-1" d="M501.33,266.71H288a10.67,10.67,0,1,1,0-21.33H501.33a10.67,10.67,0,1,1,0,21.33Z" transform="translate(0 -10.63)"/><path class="cls-1" d="M501.33,202.71H288a10.67,10.67,0,1,1,0-21.33H501.33a10.67,10.67,0,1,1,0,21.33Z" transform="translate(0 -10.63)"/><path class="cls-1" d="M501.33,138.71H288a10.67,10.67,0,1,1,0-21.33H501.33a10.67,10.67,0,1,1,0,21.33Z" transform="translate(0 -10.63)"/></svg>