<?xml version="1.0" encoding="utf-8"?>
<!-- Generator: Adobe Illustrator 25.2.0, SVG Export Plug-In . SVG Version: 6.00 Build 0)  -->
<svg version="1.0" id="Layer_1" xmlns="http://www.w3.org/2000/svg" xmlns:xlink="http://www.w3.org/1999/xlink" x="0px" y="0px"
	 viewBox="0 0 100 100" style="enable-background:new 0 0 100 100;" xml:space="preserve">
<style type="text/css">
	.st0{fill:#4CAF50;}
	.st1{fill:#FAFAFA;}
</style>
<g>
	<g>
		<path class="st0" d="M56.54,9.55c-0.42-0.34-0.97-0.47-1.49-0.35L9.36,19.75c-0.8,0.18-1.37,0.9-1.36,1.73v59.74
			c0,0.87,0.63,1.6,1.49,1.74l45.68,7.03c0.96,0.15,1.86-0.51,2-1.47c0.01-0.09,0.02-0.18,0.02-0.27V10.93
			C57.2,10.4,56.96,9.89,56.54,9.55z"/>
		<path class="st0" d="M90.58,82.97H55.44c-0.97,0-1.76-0.79-1.76-1.76s0.79-1.76,1.76-1.76h33.38V19.72H55.44
			c-0.97,0-1.76-0.79-1.76-1.76s0.79-1.76,1.76-1.76h35.14c0.97,0,1.76,0.79,1.76,1.76v63.25C92.34,82.19,91.55,82.97,90.58,82.97z"
			/>
	</g>
	<g>
		<path class="st1" d="M41.38,65.4c-0.61,0-1.17-0.31-1.49-0.83L22.32,36.46c-0.54-0.81-0.32-1.9,0.48-2.44
			c0.81-0.54,1.9-0.32,2.44,0.48c0.02,0.03,0.04,0.06,0.06,0.1l17.57,28.11c0.51,0.82,0.26,1.91-0.56,2.42
			C42.03,65.31,41.71,65.4,41.38,65.4z"/>
		<path class="st1" d="M23.81,65.4c-0.97,0-1.76-0.79-1.75-1.76c0-0.33,0.09-0.65,0.27-0.93L39.9,34.6c0.49-0.84,1.56-1.13,2.4-0.64
			c0.84,0.49,1.13,1.56,0.64,2.4c-0.02,0.03-0.04,0.07-0.06,0.1L25.31,64.57C24.99,65.09,24.42,65.4,23.81,65.4z"/>
	</g>
	<g>
		<path class="st0" d="M69.5,82.97c-0.97,0-1.76-0.79-1.76-1.76V17.96c0-0.97,0.79-1.76,1.76-1.76c0.97,0,1.76,0.79,1.76,1.76v63.25
			C71.25,82.19,70.47,82.97,69.5,82.97z"/>
		<path class="st0" d="M90.58,72.43H55.44c-0.97,0-1.76-0.79-1.76-1.76c0-0.97,0.79-1.76,1.76-1.76h35.14
			c0.97,0,1.76,0.79,1.76,1.76C92.34,71.64,91.55,72.43,90.58,72.43z"/>
		<path class="st0" d="M90.58,61.89H55.44c-0.97,0-1.76-0.79-1.76-1.76c0-0.97,0.79-1.76,1.76-1.76h35.14
			c0.97,0,1.76,0.79,1.76,1.76C92.34,61.1,91.55,61.89,90.58,61.89z"/>
		<path class="st0" d="M90.58,51.34H55.44c-0.97,0-1.76-0.79-1.76-1.76c0-0.97,0.79-1.76,1.76-1.76h35.14
			c0.97,0,1.76,0.79,1.76,1.76C92.34,50.56,91.55,51.34,90.58,51.34z"/>
		<path class="st0" d="M90.58,40.8H55.44c-0.97,0-1.76-0.79-1.76-1.76c0-0.97,0.79-1.76,1.76-1.76h35.14c0.97,0,1.76,0.79,1.76,1.76
			C92.34,40.02,91.55,40.8,90.58,40.8z"/>
		<path class="st0" d="M90.58,30.26H55.44c-0.97,0-1.76-0.79-1.76-1.76c0-0.97,0.79-1.76,1.76-1.76h35.14
			c0.97,0,1.76,0.79,1.76,1.76C92.34,29.47,91.55,30.26,90.58,30.26z"/>
	</g>
</g>
</svg>
