<?xml version="1.0" encoding="utf-8"?>
<!-- Generator: Adobe Illustrator 25.2.0, SVG Export Plug-In . SVG Version: 6.00 Build 0)  -->
<svg version="1.0" id="Layer_1" xmlns="http://www.w3.org/2000/svg" xmlns:xlink="http://www.w3.org/1999/xlink" x="0px" y="0px"
	 viewBox="0 0 100 100" style="enable-background:new 0 0 100 100;" xml:space="preserve">
<style type="text/css">
	.st0{fill:#F9B65D;}
	.st1{fill:#EA4C3A;}
	.st2{fill:none;stroke:#EA4C3A;stroke-width:0.75;stroke-linejoin:round;stroke-miterlimit:10;}
</style>
<g>
	<path class="st0" d="M86.59,30.31L71.77,13.12l-2.94-3.41H33.82c-4.71,0-8.51,3.81-8.51,8.51v10.82h5.28l0-8.75
		c0.01-2.65,2.14-4.78,4.77-4.78l29.96-0.03v14.19c0,5.28,4.27,9.56,9.56,9.56h10.37l-0.51,40.93c-0.01,2.63-2.14,4.76-4.77,4.78
		l-44.97-0.02c-2.41,0-4.34-2.36-4.36-5.27v-3.46h-5.28v5.17c0,5.2,3.48,9.41,7.75,9.41l48.4-0.01c4.7,0,8.51-3.83,8.51-8.52V34.27
		L86.59,30.31"/>
	<path class="st1" d="M63.57,78.82H8.68V26.4h54.89V78.82 M13.95,73.55h44.34V31.68H13.95"/>
	<path class="st2" d="M36.78,34.41c0.83,0.38,0.66,0.89,0.4,3.27c-0.26,2.47-1.13,6.96-2.81,11.37c-1.68,4.42-4.17,8.75-6.33,11.96
		c-2.17,3.21-4.03,5.29-5.44,6.5c-1.41,1.2-2.4,1.52-3.04,1.63c-0.63,0.11-0.92,0-1.1-0.32c-0.17-0.32-0.23-0.86-0.08-1.5
		c0.14-0.64,0.49-1.39,1.48-2.35c0.98-0.96,2.6-2.14,4.86-3.24c2.26-1.1,5.15-2.11,7.53-2.81c2.37-0.7,4.23-1.07,5.85-1.36
		c1.62-0.29,3.01-0.51,4.37-0.62c1.36-0.11,2.69-0.11,4,0c1.3,0.11,2.57,0.32,3.67,0.59c1.11,0.26,2.03,0.59,2.84,1.1
		c0.81,0.51,1.5,1.2,1.86,1.98c0.35,0.78,0.35,1.63,0.06,2.25c-0.29,0.62-0.87,0.99-1.53,1.2c-0.67,0.22-1.42,0.27-2.32,0
		c-0.9-0.27-1.94-0.86-3.04-1.63c-1.1-0.77-2.26-1.74-3.76-3.23c-1.51-1.5-3.36-3.54-4.92-5.51c-1.56-1.98-2.84-3.91-3.7-5.54
		c-0.87-1.63-1.33-2.97-1.71-4.31c-0.38-1.34-0.66-2.67-0.78-3.87c-0.12-1.21-0.06-2.28,0.06-3.13c0.11-0.86,0.29-1.5,0.58-1.93
		c0.29-0.43,0.7-0.64,0.99-0.75c0.29-0.11,0.46-0.11,0.64-0.13c0.17-0.02,0.34-0.08,0.6,0c0.26,0.08,0.59,0.28,0.93,0.49"/>
</g>
</svg>
