<?xml version="1.0" encoding="utf-8"?>
<!-- Generator: Adobe Illustrator 25.0.0, SVG Export Plug-In . SVG Version: 6.00 Build 0)  -->
<svg version="1.1" id="Layer_1" xmlns="http://www.w3.org/2000/svg" xmlns:xlink="http://www.w3.org/1999/xlink" x="0px" y="0px"
	 viewBox="0 0 24 24" style="enable-background:new 0 0 24 24;" xml:space="preserve">
<g id="Group_87" transform="translate(0 0)">
	<path id="Path_89" d="M22.98,9.42c0.01-2.29-1.84-4.15-4.13-4.15c-0.5,0-1,0.09-1.47,0.26c-1.15-1.38-2.73-2.34-4.49-2.72V2.42
		c0-1.05-0.85-1.91-1.91-1.91S9.06,1.37,9.06,2.42v0.51c-3.5,0.96-5.93,4.14-5.94,7.77v6.36H2.91C1.85,17.06,1,17.91,1,18.97
		c0,1.05,0.85,1.91,1.91,1.91h5.8c0.35,1.48,1.83,2.4,3.32,2.05c1.01-0.24,1.81-1.03,2.05-2.05h5.38c1.05,0,1.91-0.85,1.91-1.91
		c0-1.05-0.85-1.91-1.91-1.91l0,0h-0.21v-3.5C21.36,13.34,22.97,11.55,22.98,9.42z M22.13,9.42c0,1.83-1.48,3.31-3.3,3.31
		c-1.83,0-3.31-1.48-3.31-3.3s1.48-3.31,3.31-3.31c0,0,0,0,0,0C20.65,6.12,22.12,7.6,22.13,9.42z M9.91,2.42
		c0-0.59,0.47-1.06,1.06-1.06c0.59,0,1.06,0.47,1.06,1.06v0.26c-0.71-0.08-1.42-0.06-2.12,0.07V2.42z M11.4,22.15
		c-0.81,0-1.53-0.51-1.79-1.27h3.59C12.93,21.64,12.21,22.16,11.4,22.15L11.4,22.15z M19.46,17.91c0.59,0,1.06,0.48,1.06,1.06
		c0,0.58-0.47,1.06-1.06,1.06H2.91c-0.59,0-1.06-0.48-1.06-1.06c0-0.58,0.47-1.06,1.06-1.06h0.64c0.23,0,0.42-0.19,0.42-0.42V10.7
		c-0.01-3.98,3.21-7.21,7.19-7.22c2.08,0,4.05,0.89,5.42,2.45c-1.93,1.23-2.5,3.8-1.26,5.73c0.68,1.07,1.82,1.77,3.08,1.9v3.93
		c0,0.23,0.19,0.42,0.42,0.42L19.46,17.91z"/>
	<path id="Path_90" d="M17.69,10.98c0.11,0,0.22-0.04,0.3-0.12l1.14-1.14c0.08-0.08,0.12-0.18,0.12-0.3V7.81
		c0-0.23-0.19-0.42-0.43-0.42c-0.23,0-0.42,0.19-0.42,0.42v1.45l-1.01,1.01c-0.17,0.17-0.17,0.43,0,0.6
		C17.46,10.94,17.57,10.99,17.69,10.98L17.69,10.98z"/>
	<path id="Path_91" d="M12.46,17.06h-0.85c-0.23,0-0.42,0.19-0.42,0.42c0,0.23,0.19,0.42,0.42,0.42l0,0h0.85
		c0.23,0,0.42-0.19,0.42-0.42C12.88,17.25,12.69,17.06,12.46,17.06L12.46,17.06z"/>
	<path id="Path_92" d="M10.05,17.06H5.67c-0.23,0-0.42,0.19-0.42,0.42c0,0.23,0.19,0.42,0.42,0.42h4.38c0.23,0,0.42-0.19,0.42-0.42
		C10.48,17.25,10.29,17.06,10.05,17.06L10.05,17.06z"/>
</g>
</svg>
