<?xml version="1.0" encoding="utf-8"?>
<!-- Generator: Adobe Illustrator 25.0.0, SVG Export Plug-In . SVG Version: 6.00 Build 0)  -->
<svg version="1.1" id="Layer_1" xmlns="http://www.w3.org/2000/svg" xmlns:xlink="http://www.w3.org/1999/xlink" x="0px" y="0px"
	 viewBox="0 0 24 24" style="enable-background:new 0 0 24 24;" xml:space="preserve">
<g id="Group_95" transform="translate(0 0)">
	<g id="Group_94" transform="translate(2.875)">
		<path id="Path_97" d="M7.08,8.63c-2.15,0-3.9-1.74-3.9-3.9s1.74-3.9,3.9-3.9c2.15,0,3.9,1.74,3.9,3.9l0,0
			C10.97,6.89,9.23,8.63,7.08,8.63z M7.08,1.66c-1.7,0-3.07,1.38-3.07,3.07s1.38,3.07,3.07,3.07c1.7,0,3.07-1.38,3.07-3.07
			C10.15,3.04,8.78,1.66,7.08,1.66z"/>
	</g>
	<path id="Path_98" d="M16.29,12.74c-0.1,0-0.19,0.01-0.29,0.01c-0.24,0.01-0.47,0.04-0.7,0.09c-2.18,0.43-3.84,2.21-4.11,4.42
		c-0.03,0.2-0.04,0.41-0.04,0.61v0.04c0.01,1.35,0.55,2.64,1.51,3.59c0.01,0.01,0.02,0.01,0.03,0.02c0.95,0.96,2.25,1.49,3.6,1.49
		c2.83,0,5.13-2.3,5.13-5.13S19.12,12.73,16.29,12.74L16.29,12.74z M11.94,17.86c0-0.22,0.02-0.43,0.05-0.64
		c0.29-1.89,1.77-3.36,3.66-3.65c0.21-0.03,0.42-0.05,0.64-0.05c0.01,0,0.03,0.01,0.05,0.01c1,0.01,1.96,0.36,2.73,1l-6.1,6.11
		c-0.65-0.77-1-1.75-1-2.76C11.94,17.88,11.94,17.87,11.94,17.86L11.94,17.86z M16.29,22.21c-1.02,0-2-0.36-2.78-1.01l6.11-6.11
		c1.54,1.84,1.29,4.58-0.55,6.11C18.29,21.86,17.3,22.21,16.29,22.21z"/>
	<path id="Path_99" d="M9.89,17.09c-3.5-0.02-5.85-1.32-5.85-2.54c0-3.26,2.64-5.91,5.91-5.92c2.09,0,4.03,1.1,5.1,2.91
		c0.29-0.06,0.59-0.09,0.89-0.1c-1.72-3.3-5.78-4.58-9.08-2.87c-2.23,1.16-3.63,3.47-3.63,5.98c0,1.87,2.9,3.34,6.62,3.37
		c0-0.02,0-0.03,0-0.05C9.84,17.61,9.86,17.35,9.89,17.09z"/>
</g>
</svg>
