<?xml version="1.0" encoding="utf-8"?>
<!-- Generator: Adobe Illustrator 25.0.0, SVG Export Plug-In . SVG Version: 6.00 Build 0)  -->
<svg version="1.1" id="Layer_1" xmlns="http://www.w3.org/2000/svg" xmlns:xlink="http://www.w3.org/1999/xlink" x="0px" y="0px"
	 viewBox="0 0 24 24" style="enable-background:new 0 0 24 24;" xml:space="preserve">
<g id="Group_85" transform="translate(0 0)">
	<g id="Group_78" transform="translate(5.849 4.863)">
		<g id="Group_77">
			<path id="Path_79" d="M11.02,0.67H1.29C1.1,0.66,0.95,0.8,0.94,0.98C0.93,1.16,1.07,1.32,1.25,1.33c0.01,0,0.02,0,0.04,0h9.73
				c0.18-0.01,0.32-0.17,0.31-0.35C11.32,0.81,11.19,0.68,11.02,0.67z"/>
		</g>
	</g>
	<g id="Group_80" transform="translate(5.849 6.596)">
		<g id="Group_79">
			<path id="Path_80" d="M11.02,0.65H1.29c-0.18,0-0.33,0.15-0.33,0.33c0,0.18,0.15,0.33,0.33,0.33c0,0,0,0,0,0h9.73
				c0.18,0,0.33-0.15,0.33-0.33C11.35,0.8,11.2,0.65,11.02,0.65z"/>
		</g>
	</g>
	<g id="Group_82" transform="translate(5.849 8.328)">
		<g id="Group_81">
			<path id="Path_81" d="M5.85,0.64H1.29C1.1,0.63,0.95,0.77,0.94,0.95C0.93,1.13,1.07,1.29,1.25,1.3c0.01,0,0.02,0,0.04,0h4.57
				c0.18-0.01,0.32-0.17,0.31-0.35C6.16,0.78,6.02,0.65,5.85,0.64z"/>
		</g>
	</g>
	<g id="Group_84">
		<g id="Group_83">
			<path id="Path_82" d="M22.18,7.19l-1.9-1.29V5.42c0-1.18-0.96-2.14-2.14-2.14h-1.72l-3.21-2.18c-0.73-0.5-1.69-0.5-2.42,0
				l-3.2,2.18l0,0H5.86c-1.18,0-2.14,0.96-2.14,2.14V5.9l-1.9,1.29C1.31,7.54,1,8.12,1,8.74V21.9c-0.06,0.72,0.47,1.35,1.19,1.41
				c0.07,0.01,0.14,0.01,0.22,0h19.18c0.78,0,1.4-0.63,1.41-1.41V8.74C23,8.12,22.69,7.54,22.18,7.19z M11.16,1.64
				c0.51-0.35,1.17-0.35,1.68,0l2.4,1.64H8.76L11.16,1.64z M4.38,5.42c0-0.82,0.66-1.48,1.48-1.48h12.28c0.82,0,1.48,0.66,1.48,1.48
				v2.5c0.01,0.18,0.17,0.32,0.35,0.31c0.17-0.01,0.3-0.14,0.31-0.31V6.71c0,0,1.63,1.12,1.69,1.17l-8.2,4.97
				c-1.08,0.66-2.44,0.66-3.52,0L4.38,9.25L4.38,5.42z M3.72,6.71v2.14L2.07,7.84C2.11,7.8,3.72,6.7,3.72,6.71L3.72,6.71z
				 M2.37,22.65l1.17-1.35c0.13-0.12,0.14-0.33,0.02-0.47c-0.12-0.13-0.33-0.14-0.47-0.02c-0.02,0.01-0.03,0.03-0.04,0.05
				l-1.27,1.44c-0.08-0.12-0.12-0.26-0.12-0.4V8.74c0-0.12,0.02-0.23,0.05-0.35l7.95,4.87l-5.63,6.46
				c-0.12,0.14-0.11,0.35,0.03,0.47c0.14,0.11,0.34,0.09,0.47-0.03l5.72-6.57c1.11,0.53,2.41,0.53,3.52-0.01l7.87,9.06
				C21.63,22.65,2.38,22.65,2.37,22.65L2.37,22.65z M22.34,21.91c0,0.14-0.04,0.28-0.12,0.4l-7.86-9.05l7.94-4.81
				c0.02,0.1,0.04,0.2,0.04,0.3L22.34,21.91L22.34,21.91z"/>
		</g>
	</g>
</g>
</svg>
