<?xml version="1.0" encoding="utf-8"?>
<!-- Generator: Adobe Illustrator 25.0.0, SVG Export Plug-In . SVG Version: 6.00 Build 0)  -->
<svg version="1.1" id="Layer_1" xmlns="http://www.w3.org/2000/svg" xmlns:xlink="http://www.w3.org/1999/xlink" x="0px" y="0px"
	 viewBox="0 0 24 24" style="enable-background:new 0 0 24 24;" xml:space="preserve">
<style type="text/css">
	.st0{fill:#F9B65D;}
	.st1{fill:#62D2F9;}
</style>
<g id="Group_1070" transform="translate(9.542 8.713)">
	<path id="Path_865" class="st0" d="M3.76,7.55C3.76,7.27,3.65,7,3.45,6.8c-0.3-0.26-0.64-0.44-1.02-0.55
		C1.88,6.11,1.37,5.84,0.95,5.46c-0.34-0.35-0.52-0.83-0.5-1.32C0.43,3.66,0.59,3.2,0.91,2.84c0.33-0.35,0.78-0.56,1.27-0.61V1.16
		h0.77v1.08C3.43,2.28,3.89,2.52,4.2,2.9c0.32,0.43,0.48,0.96,0.45,1.49H3.7c0.02-0.36-0.09-0.71-0.31-1C3.19,3.14,2.88,3,2.55,3.01
		C1.99,2.94,1.48,3.34,1.41,3.9c-0.01,0.08-0.01,0.16,0,0.23C1.4,4.41,1.5,4.69,1.7,4.89c0.31,0.26,0.67,0.44,1.06,0.55
		c0.54,0.15,1.05,0.42,1.47,0.8c0.33,0.35,0.51,0.82,0.48,1.3c0.02,0.49-0.16,0.97-0.5,1.33C3.84,9.21,3.35,9.41,2.84,9.45v0.93
		H2.08V9.45c-0.51-0.04-1-0.25-1.37-0.61C0.33,8.43,0.14,7.87,0.19,7.31L0.2,7.29h0.92C1.09,7.68,1.23,8.07,1.5,8.35
		c0.26,0.21,0.59,0.33,0.92,0.32c0.35,0.02,0.7-0.08,0.98-0.3C3.64,8.17,3.77,7.86,3.76,7.55z"/>
</g>
<g id="Group_1075">
	<g id="Group_1071" transform="translate(0 1.884)">
		<path id="Path_866" class="st1" d="M23,20.46H1V1.73h22V20.46z M2.41,19.05h19.19V3.14H2.41L2.41,19.05z"/>
	</g>
	<g id="Group_1072" transform="translate(0.769 5.353)">
		<rect id="Rectangle_372" x="0.93" y="1.44" class="st1" width="20.59" height="1.41"/>
	</g>
	<g id="Group_1073" transform="translate(4.116)">
		<path id="Path_867" class="st1" d="M1.36,5.96c-0.39,0-0.7-0.31-0.7-0.7c0,0,0,0,0,0V2.59c0-0.39,0.31-0.7,0.7-0.7
			s0.7,0.31,0.7,0.7c0,0,0,0,0,0v2.67C2.06,5.65,1.75,5.96,1.36,5.96z"/>
	</g>
	<g id="Group_1074" transform="translate(18.454)">
		<path id="Path_868" class="st1" d="M0.16,5.96c-0.39,0-0.7-0.31-0.7-0.7V2.59C-0.53,2.2-0.2,1.9,0.18,1.91
			c0.37,0.01,0.67,0.31,0.68,0.68v2.67C0.86,5.65,0.55,5.96,0.16,5.96L0.16,5.96z"/>
	</g>
</g>
</svg>
