<?xml version="1.0" encoding="utf-8"?>
<!-- Generator: Adobe Illustrator 25.0.0, SVG Export Plug-In . SVG Version: 6.00 Build 0)  -->
<svg version="1.1" id="Layer_1" xmlns="http://www.w3.org/2000/svg" xmlns:xlink="http://www.w3.org/1999/xlink" x="0px" y="0px"
	 viewBox="0 0 24 24" style="enable-background:new 0 0 24 24;" xml:space="preserve">
<style type="text/css">
	.st0{fill:#F9B65D;}
	.st1{fill:#62D2F9;}
</style>
<g id="Group_1080" transform="translate(-21.18 -760.334)">
	<circle id="Ellipse_187" class="st0" cx="33.77" cy="771.79" r="1.32"/>
	<path id="Path_869" class="st0" d="M33.34,772.05l-3.05-6.04l3.91,5.5L33.34,772.05z"/>
	<path id="Path_870" class="st1" d="M33.29,761.4c-5.01-0.01-9.07,4.05-9.08,9.05c-0.01,5.01,4.05,9.07,9.05,9.08
		c0.42,0,0.84-0.03,1.26-0.09v-1.46c-0.41,0.07-0.82,0.11-1.24,0.11c-4.24,0.02-7.69-3.39-7.72-7.63c-0.02-4.24,3.39-7.69,7.63-7.72
		c4.24-0.02,7.69,3.39,7.72,7.63c0,0.47-0.04,0.95-0.12,1.42c0.48,0.2,0.92,0.5,1.27,0.88c1.24-4.83-1.67-9.75-6.5-10.99
		C34.83,761.5,34.06,761.4,33.29,761.4z"/>
	<g id="Group_1079" transform="translate(34.649 773.765)">
		<g id="Group_1077" transform="translate(0 5.972)">
			<path id="Path_871" class="st1" d="M4.69,3.41C3.55,3.44,2.41,3.23,1.36,2.8c-0.3-0.15-0.49-0.45-0.48-0.79V0.1
				c0-0.23,0.09-0.45,0.25-0.61l1.38-1.41C2.71-2.11,3.02-2.1,3.21-1.9C3.39-1.71,3.4-1.41,3.22-1.22L1.84,0.19l0.03,1.75
				c1.84,0.63,3.83,0.63,5.67,0v-1.8l-1.3-1.36c-0.19-0.2-0.17-0.52,0.03-0.7c0.2-0.19,0.52-0.17,0.7,0.03L8.3-0.46
				C8.45-0.3,8.53-0.09,8.53,0.13v1.88c0,0.34-0.19,0.65-0.5,0.79C6.97,3.23,5.83,3.44,4.69,3.41z M1.87,2L1.87,2z M7.61,1.89
				L7.61,1.89z"/>
		</g>
		<g id="Group_1078" transform="translate(1.607 0)">
			<path id="Path_872" class="st1" d="M3.14,4.23C1.67,4.31,0.42,3.17,0.34,1.7C0.26,0.23,1.39-1.02,2.86-1.1
				c1.47-0.08,2.73,1.05,2.8,2.53c0,0.05,0,0.09,0,0.14C5.71,3,4.58,4.19,3.14,4.23z M3.14-0.1C2.22-0.18,1.41,0.5,1.33,1.42
				c-0.08,0.92,0.6,1.74,1.53,1.82c0.92,0.08,1.74-0.6,1.82-1.53c0-0.05,0.01-0.1,0.01-0.15C4.71,0.68,4.02-0.06,3.14-0.1L3.14-0.1z
				"/>
		</g>
	</g>
</g>
</svg>
