<?xml version="1.0" encoding="utf-8"?>
<!-- Generator: Adobe Illustrator 25.0.0, SVG Export Plug-In . SVG Version: 6.00 Build 0)  -->
<svg version="1.1" id="Layer_1" xmlns="http://www.w3.org/2000/svg" xmlns:xlink="http://www.w3.org/1999/xlink" x="0px" y="0px"
	 viewBox="0 0 24 24" style="enable-background:new 0 0 24 24;" xml:space="preserve">
<style type="text/css">
	.st0{fill:#F9B65D;}
	.st1{fill:#62D2F9;}
</style>
<g id="Group_1065" transform="translate(-15.82 -439.545)">
	<g id="Group_1052" transform="translate(19.85 450.099)">
		<g id="Group_1051">
			<path id="Path_851" class="st0" d="M0.94,3.49C0.78,3.48,0.67,3.36,0.67,3.21c0-0.09,0.05-0.17,0.12-0.22l5.77-3.45
				c0.14-0.06,0.3,0.01,0.36,0.15C6.98-0.21,6.94-0.08,6.85,0L1.07,3.45C1.03,3.48,0.98,3.49,0.94,3.49z"/>
		</g>
	</g>
	<g id="Group_1054" transform="translate(28.975 450.099)">
		<g id="Group_1053">
			<path id="Path_852" class="st0" d="M5.45,3.49c-0.05,0-0.1-0.02-0.15-0.04L0.02-0.01C-0.11-0.07-0.17-0.24-0.1-0.38
				c0.07-0.14,0.23-0.19,0.37-0.12C0.29-0.49,0.3-0.48,0.32-0.46L5.6,2.99c0.12,0.09,0.15,0.26,0.07,0.38
				C5.62,3.44,5.54,3.48,5.45,3.49L5.45,3.49z"/>
		</g>
	</g>
	<g id="Group_1056" transform="translate(27.523 450.099)">
		<g id="Group_1055">
			<path id="Path_853" class="st0" d="M0.29,3.49c-0.15,0-0.27-0.12-0.27-0.27v-3.45C0-0.39,0.1-0.53,0.25-0.55
				C0.4-0.57,0.54-0.47,0.56-0.31c0,0.03,0,0.05,0,0.08v3.45C0.56,3.36,0.44,3.49,0.29,3.49z"/>
		</g>
	</g>
	<g id="Group_1057" transform="translate(24.104 444.515)">
		<path id="Path_854" class="st1" d="M3.7,4.68C2.68,4.71,1.66,4.52,0.72,4.13C0.46,4.01,0.3,3.75,0.31,3.46V1.74
			c0-0.19,0.08-0.38,0.21-0.52l1.25-1.27l0.57,0.56L1.09,1.79L1.1,3.43c1.69,0.59,3.53,0.59,5.21,0V1.77L5.13,0.51l0.59-0.54
			l1.2,1.3c0.13,0.14,0.2,0.31,0.2,0.5v1.7c0,0.28-0.16,0.54-0.42,0.67C5.75,4.52,4.72,4.71,3.7,4.68z M1.11,3.47L1.11,3.47z"/>
	</g>
	<g id="Group_1058" transform="translate(25.431 439.545)">
		<path id="Path_855" class="st1" d="M2.43,5.09c-1.3,0.07-2.41-0.93-2.48-2.23s0.93-2.41,2.23-2.48c1.3-0.07,2.41,0.93,2.48,2.23
			c0,0.04,0,0.08,0,0.13C4.69,4,3.7,5.05,2.43,5.09z M2.43,1.18C1.57,1.11,0.82,1.75,0.75,2.6s0.57,1.61,1.43,1.68
			s1.61-0.57,1.68-1.43c0-0.04,0-0.08,0-0.12C3.9,1.91,3.26,1.21,2.43,1.18z"/>
	</g>
	<g id="Group_1059" transform="translate(33.183 459.504)">
		<path id="Path_856" class="st1" d="M2.58,2.94C1.67,2.97,0.77,2.8-0.07,2.46C-0.31,2.34-0.46,2.1-0.45,1.83V0.31
			c0-0.18,0.07-0.36,0.2-0.49l1.1-1.12l0.57,0.56L0.35,0.35v1.41c1.46,0.5,3.04,0.5,4.5,0V0.38L3.81-0.74L4.4-1.28l1.06,1.15
			c0.12,0.13,0.18,0.3,0.18,0.47v1.49c0,0.27-0.15,0.52-0.39,0.63C4.4,2.8,3.49,2.97,2.58,2.94z"/>
	</g>
	<g id="Group_1060" transform="translate(34.352 455.111)">
		<path id="Path_857" class="st1" d="M1.46,3.32C0.29,3.38-0.71,2.48-0.77,1.3s0.84-2.17,2.01-2.23c1.17-0.06,2.17,0.84,2.23,2.01
			c0,0.04,0,0.07,0,0.11C3.51,2.34,2.6,3.29,1.46,3.32z M1.46-0.13C0.73-0.19,0.09,0.35,0.03,1.08c-0.06,0.73,0.48,1.37,1.21,1.43
			c0.73,0.06,1.37-0.48,1.43-1.21c0-0.04,0-0.07,0-0.11C2.71,0.49,2.16-0.1,1.46-0.13L1.46-0.13z"/>
	</g>
	<g id="Group_1061" transform="translate(24.494 459.504)">
		<path id="Path_858" class="st1" d="M3.31,2.94C2.4,2.97,1.5,2.8,0.66,2.46C0.42,2.34,0.27,2.1,0.27,1.83V0.31
			c0-0.18,0.07-0.36,0.2-0.49l1.1-1.12l0.57,0.56L1.07,0.36v1.41c1.46,0.5,3.04,0.5,4.5,0V0.38L4.54-0.74l0.59-0.54l1.06,1.15
			c0.12,0.13,0.18,0.3,0.18,0.47v1.5c0,0.27-0.15,0.52-0.39,0.63C5.13,2.8,4.22,2.97,3.31,2.94z"/>
	</g>
	<g id="Group_1062" transform="translate(25.663 455.111)">
		<path id="Path_859" class="st1" d="M2.19,3.32C1.02,3.38,0.02,2.48-0.04,1.3S0.8-0.87,1.97-0.93C3.15-0.98,4.14-0.08,4.2,1.09
			c0,0.04,0,0.07,0,0.11C4.23,2.34,3.33,3.29,2.19,3.32z M2.19-0.13C1.46-0.19,0.82,0.35,0.75,1.08C0.69,1.81,1.23,2.46,1.96,2.52
			S3.34,2.04,3.4,1.31c0-0.04,0-0.08,0-0.11C3.43,0.49,2.89-0.1,2.19-0.13L2.19-0.13z"/>
	</g>
	<g id="Group_1063" transform="translate(15.82 459.504)">
		<path id="Path_860" class="st1" d="M4.03,2.94C3.13,2.97,2.23,2.8,1.39,2.46C1.15,2.34,1,2.1,1,1.83V0.31
			c0-0.18,0.07-0.36,0.2-0.49l1.1-1.12l0.57,0.56L1.8,0.36v1.41c1.46,0.5,3.04,0.5,4.5,0V0.38L5.26-0.74l0.59-0.54l1.06,1.15
			c0.12,0.13,0.18,0.3,0.18,0.47v1.49c0,0.27-0.15,0.52-0.39,0.63C5.85,2.8,4.94,2.97,4.03,2.94z"/>
	</g>
	<g id="Group_1064" transform="translate(16.989 455.111)">
		<path id="Path_861" class="st1" d="M2.92,3.32C1.74,3.38,0.75,2.48,0.69,1.3C0.63,0.13,1.53-0.87,2.7-0.93
			c1.17-0.06,2.17,0.84,2.23,2.01c0,0.04,0,0.07,0,0.11C4.96,2.34,4.06,3.29,2.92,3.32z M2.92-0.13C2.18-0.19,1.54,0.35,1.48,1.08
			C1.42,1.81,1.96,2.46,2.69,2.52c0.73,0.06,1.37-0.48,1.44-1.21c0-0.04,0-0.08,0-0.11C4.16,0.49,3.62-0.1,2.92-0.13L2.92-0.13z"/>
	</g>
</g>
</svg>
