<?xml version="1.0" encoding="utf-8"?>
<!-- Generator: Adobe Illustrator 25.0.0, SVG Export Plug-In . SVG Version: 6.00 Build 0)  -->
<svg version="1.1" id="Layer_1" xmlns="http://www.w3.org/2000/svg" xmlns:xlink="http://www.w3.org/1999/xlink" x="0px" y="0px"
	 viewBox="0 0 24 24" style="enable-background:new 0 0 24 24;" xml:space="preserve">
<g id="Group_86" transform="translate(0 0)">
	<path id="Path_83" d="M16.59,23H6.66c-0.85,0-1.55-0.66-1.6-1.51L4.16,6.68C4.15,6.51,4.28,6.36,4.46,6.35h14.31
		c0.17,0,0.32,0.14,0.32,0.31c0,0,0,0,0,0c0,0.01,0,0.01,0,0.02l-0.9,14.81C18.14,22.34,17.44,23,16.59,23z M4.81,6.97l0.87,14.48
		c0.03,0.51,0.46,0.92,0.97,0.92h9.93c0.52,0,0.95-0.4,0.98-0.92l0.87-14.48H4.81z"/>
	<path id="Path_84" d="M19.68,6.97H3.56c-0.17,0-0.31-0.14-0.31-0.31V5.33c0-1.24,1.01-2.25,2.25-2.25h12.25
		c1.24,0,2.25,1.01,2.25,2.25v1.33C19.99,6.83,19.85,6.97,19.68,6.97L19.68,6.97z M3.88,6.35h15.49V5.33c0-0.89-0.73-1.62-1.62-1.62
		H5.5c-0.89,0-1.62,0.73-1.62,1.62L3.88,6.35z"/>
	<path id="Path_85" d="M14.53,3.71h-5.8c-0.17,0-0.31-0.14-0.31-0.31V2.28C8.41,1.57,8.98,1,9.69,1h3.87c0.71,0,1.28,0.57,1.28,1.28
		v1.11C14.84,3.57,14.7,3.71,14.53,3.71C14.53,3.71,14.53,3.71,14.53,3.71z M9.04,3.08h5.18v-0.8c0-0.36-0.29-0.65-0.65-0.65H9.69
		c-0.36,0-0.65,0.29-0.65,0.65L9.04,3.08z"/>
	<path id="Path_86" d="M14.79,19.78c-0.17,0-0.31-0.14-0.31-0.31l0,0v-9.3c-0.01-0.17,0.12-0.32,0.3-0.33
		c0.17-0.01,0.32,0.12,0.33,0.3c0,0.01,0,0.02,0,0.03v9.3C15.1,19.63,14.96,19.78,14.79,19.78z"/>
	<path id="Path_87" d="M11.62,19.78c-0.17,0-0.31-0.14-0.31-0.31l0,0v-9.3c-0.01-0.17,0.12-0.32,0.3-0.33
		c0.17-0.01,0.32,0.12,0.33,0.3c0,0.01,0,0.02,0,0.03v9.3C11.94,19.63,11.8,19.78,11.62,19.78z"/>
	<path id="Path_88" d="M8.46,19.78c-0.17,0-0.31-0.14-0.31-0.31v-9.3c-0.01-0.17,0.12-0.32,0.3-0.33c0.17-0.01,0.32,0.12,0.33,0.3
		c0,0.01,0,0.02,0,0.03v9.3C8.77,19.64,8.63,19.78,8.46,19.78L8.46,19.78z"/>
</g>
</svg>
