<?xml version="1.0" encoding="utf-8"?>
<!-- Generator: Adobe Illustrator 25.0.0, SVG Export Plug-In . SVG Version: 6.00 Build 0)  -->
<svg version="1.1" id="Layer_1" xmlns="http://www.w3.org/2000/svg" xmlns:xlink="http://www.w3.org/1999/xlink" x="0px" y="0px"
	 viewBox="0 0 24 24" style="enable-background:new 0 0 24 24;" xml:space="preserve">
<g id="Group_93" transform="translate(0 0)">
	<g id="Group_88" transform="translate(11.277 14.329)">
		<path id="Path_93" d="M7.98,0.7v4.46H1.5V0.7H7.98 M8.01-0.01H1.47c-0.37,0-0.68,0.3-0.68,0.68v0v4.52c0,0.37,0.3,0.68,0.68,0.68
			l0,0h6.54c0.37,0,0.68-0.3,0.68-0.68v0V0.67C8.69,0.3,8.39-0.01,8.01-0.01L8.01-0.01z"/>
	</g>
	<g id="Group_89" transform="translate(0 2.201)">
		<path id="Path_94" d="M22.29,1.08v18.95H1.85V1.08H22.29 M23,0.37H1.15v20.36H23V0.37z"/>
	</g>
	<g id="Group_90" transform="translate(0 5.63)">
		<rect id="Rectangle_74" x="1.15" y="0.26" width="21.85" height="0.71"/>
	</g>
	<g id="Group_91" transform="translate(2.923)">
		<path id="Path_95" d="M1.76,4.77c-0.39,0-0.71-0.32-0.71-0.71l0,0V1.15C1.07,0.76,1.4,0.45,1.79,0.47
			c0.37,0.01,0.67,0.31,0.68,0.68v2.92C2.47,4.46,2.15,4.77,1.76,4.77z"/>
	</g>
	<g id="Group_92" transform="translate(17.993)">
		<path id="Path_96" d="M1.29,4.77c-0.39,0-0.71-0.31-0.71-0.7c0,0,0,0,0,0V1.15C0.6,0.76,0.93,0.45,1.32,0.47
			C1.69,0.48,1.99,0.78,2,1.15v2.92C2,4.46,1.68,4.77,1.29,4.77z"/>
	</g>
</g>
</svg>
