<svg id="Layer_1" data-name="Layer 1" xmlns="http://www.w3.org/2000/svg" viewBox="0 0 21.24 30.02"><defs><style>.cls-1{fill:#2a5182;}.cls-2{fill:#f9b65d;}</style></defs><g id="Group_991" data-name="Group 991"><g id="Group_983" data-name="Group 983"><path id="Path_784" data-name="Path 784" class="cls-1" d="M108.67,114.85h-17a2.14,2.14,0,0,1-2.13-2.13V92.9a2.13,2.13,0,0,1,2.13-2.13h17a2.14,2.14,0,0,1,2.13,2.13v19.82A2.14,2.14,0,0,1,108.67,114.85Zm-17-22.66a.7.7,0,0,0-.71.7v19.83a.71.71,0,0,0,.71.71h17a.71.71,0,0,0,.71-.71V92.9a.71.71,0,0,0-.71-.71Z" transform="translate(-89.55 -84.83)"/></g><g id="Group_984" data-name="Group 984"><path id="Path_785" data-name="Path 785" class="cls-1" d="M91,92.26a.71.71,0,0,1-.23-1.38l12.94-6V89.4a.71.71,0,0,1-1.42,0V86.79L91.23,92.22A.57.57,0,0,1,91,92.26Z" transform="translate(-89.55 -84.83)"/></g><g id="Group_985" data-name="Group 985"><path id="Path_786" data-name="Path 786" class="cls-2" d="M100.17,108.47a7.08,7.08,0,1,1,7.09-7.08h0A7.1,7.1,0,0,1,100.17,108.47Zm0-12.74a5.67,5.67,0,1,0,5.67,5.66h0A5.66,5.66,0,0,0,100.17,95.73Z" transform="translate(-89.55 -84.83)"/></g><g id="Group_986" data-name="Group 986"><path id="Path_787" data-name="Path 787" class="cls-2" d="M106,99.82H94.22a.71.71,0,0,1,0-1.42H106a.71.71,0,0,1,0,1.42Z" transform="translate(-89.55 -84.83)"/></g><g id="Group_987" data-name="Group 987"><path id="Path_788" data-name="Path 788" class="cls-2" d="M106.12,104.38H94.23a.71.71,0,1,1,0-1.41h11.89a.71.71,0,1,1,0,1.41Z" transform="translate(-89.55 -84.83)"/></g><g id="Group_988" data-name="Group 988"><path id="Path_789" data-name="Path 789" class="cls-2" d="M100.18,108.47a.67.67,0,0,1-.5-.21c-2.78-2.77-4-5.52-3.7-8.16a8.45,8.45,0,0,1,3.83-5.69.71.71,0,0,1,.73,1.21,7.16,7.16,0,0,0-3.16,4.67c-.26,2.18.85,4.52,3.3,7a.71.71,0,0,1,0,1,.67.67,0,0,1-.5.21Z" transform="translate(-89.55 -84.83)"/></g><g id="Group_989" data-name="Group 989"><path id="Path_790" data-name="Path 790" class="cls-2" d="M99.82,108.47a.71.71,0,0,1-.71-.71.75.75,0,0,1,.21-.5c2.45-2.45,3.56-4.8,3.3-7a7.16,7.16,0,0,0-3.16-4.67.71.71,0,0,1,.73-1.21,8.48,8.48,0,0,1,3.83,5.7c.33,2.63-.92,5.38-3.7,8.16A.7.7,0,0,1,99.82,108.47Z" transform="translate(-89.55 -84.83)"/></g><g id="Group_990" data-name="Group 990"><path id="Path_791" data-name="Path 791" class="cls-1" d="M105.84,112H94.51a.71.71,0,1,1,0-1.41h11.33a.71.71,0,1,1,0,1.41Z" transform="translate(-89.55 -84.83)"/></g></g></svg>