<svg id="Layer_1" data-name="Layer 1" xmlns="http://www.w3.org/2000/svg" viewBox="0 0 31.64 31.72"><defs><style>.cls-1{fill:#62d2f9;}.cls-2{fill:#f9b65d;}</style></defs><path class="cls-1" d="M111.5,103.36l-2.73-2.77a5.14,5.14,0,0,0,1.17-3.25,5.24,5.24,0,1,0-9.33,3.22l-2.68,2.67a2.25,2.25,0,0,0-.66,1.6v3.37a2.25,2.25,0,0,0,1.58,2.16,19.68,19.68,0,0,0,5.66.8,22.27,22.27,0,0,0,6-.84,2.25,2.25,0,0,0,1.61-2.17V105A2.29,2.29,0,0,0,111.5,103.36Zm-6.79-9.78a3.77,3.77,0,1,1-3.77,3.76A3.77,3.77,0,0,1,104.71,93.58Zm6,14.57a.78.78,0,0,1-.55.76,19.47,19.47,0,0,1-10.85,0,.79.79,0,0,1-.55-.76v-3.37a.81.81,0,0,1,.23-.56l2.69-2.69a5.17,5.17,0,0,0,6.07,0l2.73,2.78a.79.79,0,0,1,.23.56Z" transform="translate(-80.5 -79.45)"/><path class="cls-1" d="M94.73,100.32,92,97.55a5.18,5.18,0,0,0,1.16-3.25,5.23,5.23,0,1,0-10.46,0,5.18,5.18,0,0,0,1.13,3.21l-2.67,2.67a2.24,2.24,0,0,0-.67,1.6v3.38a2.23,2.23,0,0,0,1.59,2.15,19.5,19.5,0,0,0,5.66.81,22.25,22.25,0,0,0,6-.85,2.26,2.26,0,0,0,1.62-2.17v-3.2A2.22,2.22,0,0,0,94.73,100.32Zm-6.79-9.79a3.77,3.77,0,1,1-3.77,3.77A3.77,3.77,0,0,1,87.94,90.53Zm6,14.57a.79.79,0,0,1-.54.76,19.47,19.47,0,0,1-10.85,0,.77.77,0,0,1-.55-.75v-3.38a.79.79,0,0,1,.23-.56l2.69-2.69a5.22,5.22,0,0,0,2.65,1V103l.77,1.44.76-1.43V99.48h-.68A5.14,5.14,0,0,0,91,98.56l2.73,2.78a.79.79,0,0,1,.23.56Z" transform="translate(-80.5 -79.45)"/><path class="cls-2" d="M107.41,90.48a1.2,1.2,0,0,1-.85-.35l-1.25-1.26-11,0a1.2,1.2,0,0,1-1.2-1.2V85.18a.55.55,0,0,1,.55-.55.55.55,0,0,1,.55.55v2.46a.09.09,0,0,0,.1.1h10.94a1.21,1.21,0,0,1,.85.35l1.26,1.26.17-.07v-.42a1.2,1.2,0,0,1,1.2-1.2c.2,0,.24,0,.24-.11v-6.9a.1.1,0,0,0-.1-.11H94.29a.1.1,0,0,0-.1.11v1.47a.55.55,0,0,1-.55.55.55.55,0,0,1-.55-.55V80.65a1.2,1.2,0,0,1,1.2-1.2h14.56a1.2,1.2,0,0,1,1.2,1.2v6.9a1.2,1.2,0,0,1-1.2,1.2c-.19,0-.24,0-.24.11v.42a1.21,1.21,0,0,1-.74,1.11A1.25,1.25,0,0,1,107.41,90.48Z" transform="translate(-80.5 -79.45)"/></svg>