<svg id="Layer_1" data-name="Layer 1" xmlns="http://www.w3.org/2000/svg" viewBox="0 0 39.5 33.66"><defs><style>.cls-1{fill:#62d2f9;}.cls-2{fill:#f9b65d;}</style></defs><path class="cls-1" d="M118.07,81.26a2.79,2.79,0,0,0-2.78-2.79H81.36a2.79,2.79,0,0,0-2.79,2.79v28.1a2.79,2.79,0,0,0,2.79,2.78h27a2.79,2.79,0,0,0,2-.82l6.91-6.9a2.71,2.71,0,0,0,.73-1.35.14.14,0,0,0,0-.06v0a.75.75,0,0,0,0-.26s0-.06,0-.09,0-.11,0-.17Zm-37.7,28.1V81.26a1,1,0,0,1,1-1h33.93a1,1,0,0,1,1,1v20.55h-8.8v8.53H81.36A1,1,0,0,1,80.37,109.36Zm28.91.49v-6.24h6.25Z" transform="translate(-78.57 -78.47)"/><path class="cls-1" d="M83.48,96.82h29a.9.9,0,0,0,0-1.8h-29a.9.9,0,1,0,0,1.8Z" transform="translate(-78.57 -78.47)"/><path class="cls-1" d="M83.48,101.53h29a.9.9,0,1,0,0-1.79h-29a.9.9,0,1,0,0,1.79Z" transform="translate(-78.57 -78.47)"/><path class="cls-1" d="M104.92,104.45H83.48a.9.9,0,0,0,0,1.8h21.44a.9.9,0,0,0,0-1.8Z" transform="translate(-78.57 -78.47)"/><path class="cls-2" d="M110.54,85.94l-2.68,2.68a.9.9,0,0,0,.63,1.53.93.93,0,0,0,.64-.26l.46-.47v2.73a.9.9,0,0,0,1.8,0V89.32l.46.47a.9.9,0,0,0,1.27-1.27Z" transform="translate(-78.57 -78.47)"/><path class="cls-2" d="M108.37,85.13h4.24a.9.9,0,1,0,0-1.8h-4.24a.9.9,0,1,0,0,1.8Z" transform="translate(-78.57 -78.47)"/></svg>