<svg id="Layer_1" data-name="Layer 1" xmlns="http://www.w3.org/2000/svg" viewBox="0 0 38.73 28.22"><defs><style>.cls-1{fill:#f9b65d;}.cls-2{fill:#62d2f9;}</style></defs><path class="cls-1" d="M114.7,80.33l-4.58-1.42a.89.89,0,0,0-1.11.57.9.9,0,0,0,.58,1.11l2.46.76-3.16,2-11-6.12a.87.87,0,0,0-.8,0l-10.85,5-6.36-3.91a.87.87,0,0,0-1.21.29.89.89,0,0,0,.29,1.21L85.68,84a.87.87,0,0,0,.83,0l10.87-5,11.11,6.15a.81.81,0,0,0,.43.11.88.88,0,0,0,.47-.13l3.79-2.41-.61,2.61a.88.88,0,0,0,.65,1.06l.2,0a.88.88,0,0,0,.86-.68l1-4.37A.88.88,0,0,0,114.7,80.33Z" transform="translate(-76.74 -77.14)"/><path class="cls-2" d="M114.59,103.6h-3.74V89.7a.87.87,0,0,0-.88-.88h-5.55a.88.88,0,0,0-.88.88v13.9H99.76V84.15a.88.88,0,0,0-.88-.88H93.33a.89.89,0,0,0-.88.88V103.6H88.67V86.92a.88.88,0,0,0-.88-.88H82.24a.89.89,0,0,0-.88.88V103.6H77.62a.88.88,0,1,0,0,1.76h37a.88.88,0,1,0,0-1.76Zm-9.29-13h3.79v13H105.3ZM94.21,85H98V103.6H94.21ZM83.12,87.8h3.79v15.8H83.12Z" transform="translate(-76.74 -77.14)"/></svg>