<svg id="Layer_1" data-name="Layer 1" xmlns="http://www.w3.org/2000/svg" viewBox="0 0 28.66 30"><defs><style>.cls-1{fill:#f9b65d;}.cls-2{fill:#2a5182;}</style></defs><g id="Group_1000" data-name="Group 1000"><g id="Group_992" data-name="Group 992"><path id="Path_792" data-name="Path 792" class="cls-1" d="M87.2,98.45a.69.69,0,0,1-.69-.69h0V90.54a.69.69,0,0,1,1.38,0v7.22a.69.69,0,0,1-.69.69Z" transform="translate(-85.77 -84.84)"/></g><g id="Group_993" data-name="Group 993"><path id="Path_793" data-name="Path 793" class="cls-1" d="M93.88,95.1a.68.68,0,0,1-.69-.68h0V87.2a.69.69,0,1,1,1.38,0v7.21a.69.69,0,0,1-.69.69Z" transform="translate(-85.77 -84.84)"/></g><g id="Group_994" data-name="Group 994"><path id="Path_794" data-name="Path 794" class="cls-1" d="M97.22,93.44a.69.69,0,0,1-.69-.69h0V88.87a.69.69,0,0,1,1.38,0v3.88a.69.69,0,0,1-.69.69Z" transform="translate(-85.77 -84.84)"/></g><g id="Group_995" data-name="Group 995"><path id="Path_795" data-name="Path 795" class="cls-1" d="M90.54,96.77a.68.68,0,0,1-.69-.68h0V85.53a.69.69,0,0,1,1.38,0h0V96.08a.69.69,0,0,1-.69.69Z" transform="translate(-85.77 -84.84)"/></g><g id="Group_996" data-name="Group 996"><path id="Path_796" data-name="Path 796" class="cls-2" d="M90.67,111.7a2.35,2.35,0,0,1-2.24-1.6l-2.53-7.47a2.36,2.36,0,0,1,1.47-3l8.51-2.88a1,1,0,0,0,.31-.18l8.48-7a2.36,2.36,0,0,1,3.32.31,2.41,2.41,0,0,1,.42.75l5,14.62a2.37,2.37,0,0,1-1.49,3,2,2,0,0,1-.69.12l-10.92.3a.71.71,0,0,0-.29.05l-8.56,2.9A2.4,2.4,0,0,1,90.67,111.7Zm15.5-21.32a.93.93,0,0,0-.62.23l-8.48,7a2.23,2.23,0,0,1-.75.42L87.81,101a1,1,0,0,0-.61,1.24l2.53,7.47a1,1,0,0,0,1.24.61l8.56-2.9a2.15,2.15,0,0,1,.7-.12l10.92-.3a1,1,0,0,0,1-1,.94.94,0,0,0-.06-.28l-5-14.61a1,1,0,0,0-.66-.63.84.84,0,0,0-.27,0Zm-1.07-.3Z" transform="translate(-85.77 -84.84)"/></g><g id="Group_997" data-name="Group 997"><path id="Path_797" data-name="Path 797" class="cls-2" d="M99.53,107.25a.67.67,0,0,1-.65-.46L96.2,98.88a.69.69,0,1,1,1.3-.45h0l2.68,7.91a.69.69,0,0,1-.43.88A.78.78,0,0,1,99.53,107.25Z" transform="translate(-85.77 -84.84)"/></g><g id="Group_998" data-name="Group 998"><path id="Path_798" data-name="Path 798" class="cls-2" d="M96.85,114.84a.69.69,0,0,1-.52-.24l-3.47-4a.69.69,0,0,1,1-1l0,0,3.47,4a.69.69,0,0,1-.52,1.15Z" transform="translate(-85.77 -84.84)"/></g><g id="Group_999" data-name="Group 999"><path id="Path_799" data-name="Path 799" class="cls-2" d="M111.51,102.59a.69.69,0,0,1-.69-.69.73.73,0,0,1,.16-.45c1.21-1.43,2.52-3.47,1.9-5s-3.38-2.36-4.38-2.48a.69.69,0,0,1-.6-.76.68.68,0,0,1,.75-.6h0c.18,0,4.39.54,5.5,3.33.7,1.76,0,3.93-2.12,6.43A.71.71,0,0,1,111.51,102.59Z" transform="translate(-85.77 -84.84)"/></g></g></svg>