<svg id="Layer_1" data-name="Layer 1" xmlns="http://www.w3.org/2000/svg" viewBox="0 0 24.44 30.19"><defs><style>.cls-1{fill:#f9b65d;}.cls-2{fill:#62d2f9;}</style></defs><path class="cls-1" d="M97.89,101.21a6.34,6.34,0,1,1,0-12.68V90a4.91,4.91,0,1,0,0,9.81Z" transform="translate(-87.38 -75.81)"/><path class="cls-1" d="M98.51,90c-.2,0-.41,0-.62,0V88.53a5.29,5.29,0,0,1,.8,0Z" transform="translate(-87.38 -75.81)"/><path class="cls-1" d="M100.33,100.72l-.56-1.33a4.72,4.72,0,0,0,1.11-.64l.88,1.14A6.2,6.2,0,0,1,100.33,100.72Zm2.6-2-1.15-.88a4.72,4.72,0,0,0,.64-1.11l1.33.55A6.86,6.86,0,0,1,102.93,98.72Zm1.25-3-1.43-.18c0-.21,0-.42,0-.63a4.62,4.62,0,0,0-.05-.65l1.43-.19a5.73,5.73,0,0,1,.06.84A7.34,7.34,0,0,1,104.18,95.68ZM102.41,93a4.72,4.72,0,0,0-.64-1.11l1.14-.87a7,7,0,0,1,.83,1.42Zm-1.55-2a4.72,4.72,0,0,0-1.11-.64L100.3,89a6.2,6.2,0,0,1,1.43.83Z" transform="translate(-87.38 -75.81)"/><path class="cls-1" d="M97.89,101.21V99.77a4.21,4.21,0,0,0,.62,0l.19,1.43A7.34,7.34,0,0,1,97.89,101.21Z" transform="translate(-87.38 -75.81)"/><polygon class="cls-1" points="12.48 20.17 9.79 20.17 9.79 16.35 11.22 16.35 11.22 18.73 12.48 18.73 12.48 20.17"/><path class="cls-2" d="M109.67,106H89.54a2.16,2.16,0,0,1-2.16-2.16V78a2.16,2.16,0,0,1,2.16-2.15h15.22a2.18,2.18,0,0,1,1.52.63l4.91,4.91a2.16,2.16,0,0,1,.63,1.52v21A2.16,2.16,0,0,1,109.67,106ZM89.54,77.24a.72.72,0,0,0-.72.72v25.88a.72.72,0,0,0,.72.72h20.13a.72.72,0,0,0,.72-.72v-21a.72.72,0,0,0-.22-.51l-4.9-4.91a.75.75,0,0,0-.51-.21Z" transform="translate(-87.38 -75.81)"/><path class="cls-2" d="M104.19,82.81H92.41a.72.72,0,0,1,0-1.44h11.78a.72.72,0,0,1,0,1.44Z" transform="translate(-87.38 -75.81)"/><path class="cls-2" d="M104.19,85.68H92.41a.72.72,0,0,1,0-1.44h11.78a.72.72,0,1,1,0,1.44Z" transform="translate(-87.38 -75.81)"/></svg>