<svg id="Layer_1" data-name="Layer 1" xmlns="http://www.w3.org/2000/svg" viewBox="0 0 35.04 35.08"><defs><style>.cls-1{fill:#f9b65d;}.cls-2{fill:#62d2f9;}</style></defs><path class="cls-1" d="M99.12,98.19a2.53,2.53,0,0,1-1.47-.43,2.39,2.39,0,0,1-1.63.65H84.87A2.44,2.44,0,0,1,82.43,96V85.78a2.44,2.44,0,0,1,2.44-2.44H96a2.45,2.45,0,0,1,2.44,2.44v7.13a2.71,2.71,0,0,1,.66-.08,2.61,2.61,0,0,1,1,.18V85.78A4.06,4.06,0,0,0,96,81.72H84.87a4.06,4.06,0,0,0-4.06,4.06V96A4.06,4.06,0,0,0,84.87,100H96a4.06,4.06,0,0,0,3.41-1.87A3,3,0,0,1,99.12,98.19Z" transform="translate(-80.81 -78.76)"/><path class="cls-1" d="M84.94,82.75a.81.81,0,0,1-.81-.81V79.58a.81.81,0,1,1,1.62,0v2.36A.81.81,0,0,1,84.94,82.75Z" transform="translate(-80.81 -78.76)"/><path class="cls-1" d="M95.13,82.75a.81.81,0,0,1-.81-.81V79.58a.82.82,0,1,1,1.63,0v2.36A.82.82,0,0,1,95.13,82.75Z" transform="translate(-80.81 -78.76)"/><path class="cls-1" d="M94.12,87.73H85.55a.82.82,0,0,1-.81-.82.81.81,0,0,1,.81-.81h8.57a.81.81,0,0,1,.81.81A.82.82,0,0,1,94.12,87.73Z" transform="translate(-80.81 -78.76)"/><path class="cls-1" d="M89.83,90.83H85.55a.81.81,0,0,1-.81-.81.82.82,0,0,1,.81-.82h4.28a.82.82,0,0,1,.82.82A.82.82,0,0,1,89.83,90.83Z" transform="translate(-80.81 -78.76)"/><path class="cls-2" d="M106.81,91.9a6.5,6.5,0,1,0-6.5-6.5A6.5,6.5,0,0,0,106.81,91.9Zm0-11.37a4.88,4.88,0,1,1-4.87,4.87A4.88,4.88,0,0,1,106.81,80.53Z" transform="translate(-80.81 -78.76)"/><path class="cls-2" d="M113.4,92.77H102.1a.83.83,0,0,1-.22,0l-5-1.46a2.44,2.44,0,0,0-2.41,4.07l4.78,4.78a.82.82,0,0,1,.24.57v10.71a2.44,2.44,0,0,0,2.44,2.44h7.57a2.44,2.44,0,0,0,2.44-2.44v-5.69h1.45a2.44,2.44,0,0,0,2.44-2.44V95.21A2.44,2.44,0,0,0,113.4,92.77Zm.82,10.51a.82.82,0,0,1-.82.81h-4a.81.81,0,0,1-.42-1.5l2.56-1.54.54-.32-.42-.7-.42-.7-3.1,1.86a2.44,2.44,0,0,0,1.26,4.53h.9v5.69a.82.82,0,0,1-.82.81h-7.57a.82.82,0,0,1-.82-.81V100.7a2.41,2.41,0,0,0-.71-1.72L95.63,94.2a.82.82,0,0,1,.54-1.4,1.27,1.27,0,0,1,.26,0l5,1.46a2.24,2.24,0,0,0,.68.1h11.3a.82.82,0,0,1,.82.81Z" transform="translate(-80.81 -78.76)"/></svg>