<svg id="Layer_1" data-name="Layer 1" xmlns="http://www.w3.org/2000/svg" viewBox="0 0 40 30.99"><defs><style>.cls-1{fill:none;}.cls-2{fill:#62d2f9;}.cls-3{fill:#f9b65d;}</style></defs><path class="cls-1" d="M97.84,103.13a1.26,1.26,0,0,0-1.25-1.25,1.25,1.25,0,0,0-.89.37l-1.11,1.11a1.27,1.27,0,0,0-.36.88,1.24,1.24,0,0,0,2.13.88L97.47,104A1.22,1.22,0,0,0,97.84,103.13Z" transform="translate(-80.32 -78.94)"/><path class="cls-1" d="M95,100.26A1.26,1.26,0,0,0,93.72,99a1.25,1.25,0,0,0-.89.37l-1.11,1.11a1.27,1.27,0,0,0-.36.88,1.24,1.24,0,0,0,2.13.88l1.11-1.11A1.22,1.22,0,0,0,95,100.26Z" transform="translate(-80.32 -78.94)"/><path class="cls-1" d="M91.89,97.6a1.25,1.25,0,0,0-2.13-.89l-.67.68a1.23,1.23,0,0,0,0,1.76,1.24,1.24,0,0,0,1.76,0l.67-.67A1.23,1.23,0,0,0,91.89,97.6Z" transform="translate(-80.32 -78.94)"/><path class="cls-1" d="M99.46,104.75a1.25,1.25,0,0,0-.89.37l-1.11,1.11a1.25,1.25,0,0,0-.36.88,1.24,1.24,0,0,0,2.13.88l1.11-1.11a1.24,1.24,0,0,0,0-1.76A1.21,1.21,0,0,0,99.46,104.75Z" transform="translate(-80.32 -78.94)"/><path class="cls-1" d="M113.57,92.72l-5.51-9.54h-8a2.51,2.51,0,0,0-1.79.75l-3.05,3A1.25,1.25,0,0,0,97,88.74l2.66-2.67a.79.79,0,0,1,1.11,0l3,3a2.86,2.86,0,0,0,1.4-2.46.78.78,0,0,1,1.56,0,4.42,4.42,0,0,1-1.83,3.59l5.68,5.68,3.08-3.07Z" transform="translate(-80.32 -78.94)"/><path class="cls-1" d="M98.08,89.84a2.81,2.81,0,1,1-4-4L95,85c-.26,0-.53,0-.79,0H91.5l-5.44,9.42,1.74,1.74h0l.67-.67a2.81,2.81,0,0,1,4.8,1.85,2.84,2.84,0,0,1,2.25.81,2.81,2.81,0,0,1,.83,2s0,0,0,.06a2.84,2.84,0,0,1,2,.82,2.81,2.81,0,0,1,.83,2s0,0,0,.06a2.85,2.85,0,0,1,2.05.82h0l1.47,1.47a1.25,1.25,0,0,0,1.77-1.76l-6.69-6.69a.78.78,0,0,1,1.11-1.1l8,8a1.24,1.24,0,0,0,1.77,0,1.26,1.26,0,0,0,0-1.76L102,95.31a.78.78,0,1,1,1.1-1.1l7.46,7.45a1.24,1.24,0,0,0,1.77,0,1.26,1.26,0,0,0,0-1.76L100.19,87.73Z" transform="translate(-80.32 -78.94)"/><path class="cls-1" d="M91.89,97.6a1.25,1.25,0,0,0-2.13-.89l-.67.68a1.23,1.23,0,0,0,0,1.76,1.24,1.24,0,0,0,1.76,0l.67-.67A1.23,1.23,0,0,0,91.89,97.6Z" transform="translate(-80.32 -78.94)"/><path class="cls-1" d="M113.57,92.72l-5.51-9.54h-8a2.51,2.51,0,0,0-1.79.75l-3.05,3A1.25,1.25,0,0,0,97,88.74l2.66-2.67a.79.79,0,0,1,1.11,0l3,3a2.86,2.86,0,0,0,1.4-2.46.78.78,0,0,1,1.56,0,4.42,4.42,0,0,1-1.83,3.59l5.68,5.68,3.08-3.07Z" transform="translate(-80.32 -78.94)"/><path class="cls-1" d="M95,100.26A1.26,1.26,0,0,0,93.72,99a1.25,1.25,0,0,0-.89.37l-1.11,1.11a1.27,1.27,0,0,0-.36.88,1.24,1.24,0,0,0,2.13.88l1.11-1.11A1.22,1.22,0,0,0,95,100.26Z" transform="translate(-80.32 -78.94)"/><path class="cls-1" d="M86.06,94.35l1.74,1.74h0l.67-.67a2.81,2.81,0,0,1,4.8,1.85,2.84,2.84,0,0,1,2.25.81,2.81,2.81,0,0,1,.83,2s0,0,0,.06a2.84,2.84,0,0,1,2,.82,2.81,2.81,0,0,1,.83,2s0,0,0,.06a2.85,2.85,0,0,1,2.05.82h0l1.47,1.47a1.25,1.25,0,0,0,1.77-1.76l-6.69-6.69a.78.78,0,0,1,1.11-1.1l8,8a1.24,1.24,0,0,0,1.77,0,1.26,1.26,0,0,0,0-1.76L102,95.31a.78.78,0,1,1,1.1-1.1l7.46,7.45a1.24,1.24,0,0,0,1.77,0,1.26,1.26,0,0,0,0-1.76L100.19,87.73l-2.11,2.11a2.81,2.81,0,1,1-4-4L95,85c-.26,0-.53,0-.79,0H91.79L87.2,92.37Z" transform="translate(-80.32 -78.94)"/><path class="cls-1" d="M97.84,103.13a1.26,1.26,0,0,0-1.25-1.25,1.25,1.25,0,0,0-.89.37l-1.11,1.11a1.27,1.27,0,0,0-.36.88,1.24,1.24,0,0,0,2.13.88L97.47,104A1.22,1.22,0,0,0,97.84,103.13Z" transform="translate(-80.32 -78.94)"/><path class="cls-1" d="M99.46,104.75a1.25,1.25,0,0,0-.89.37l-1.11,1.11a1.25,1.25,0,0,0-.36.88,1.24,1.24,0,0,0,2.13.88l1.11-1.11a1.24,1.24,0,0,0,0-1.76A1.21,1.21,0,0,0,99.46,104.75Z" transform="translate(-80.32 -78.94)"/><path class="cls-2" d="M112.15,97.18l3.2-3.2-6.91-12.29a.84.84,0,0,0-.06.14h-7.81a4.08,4.08,0,0,0-2.9,1.2l-.81.8a9.63,9.63,0,0,0-2.14-.25h-2.1l-.83,1.35h2.42c.26,0,.53,0,.79,0l-.89.9a2.81,2.81,0,0,0,4,4l2.11-2.11L112.36,99.9a1.26,1.26,0,0,1,0,1.76,1.24,1.24,0,0,1-1.77,0l-7.46-7.45a.78.78,0,1,0-1.1,1.1l6.69,6.69a1.25,1.25,0,0,1-.89,2.13,1.23,1.23,0,0,1-.88-.37l-8-8a.78.78,0,0,0-1.11,1.1l6.69,6.69a1.25,1.25,0,1,1-1.77,1.76l-1.47-1.47h0a2.85,2.85,0,0,0-2.05-.82s0,0,0-.06a2.81,2.81,0,0,0-.83-2,2.84,2.84,0,0,0-2-.82s0,0,0-.06a2.81,2.81,0,0,0-.83-2,2.84,2.84,0,0,0-2.25-.81,2.81,2.81,0,0,0-4.8-1.85l-.67.67h0l-1.74-1.74,1.14-2-1.91,3.11,2.25,2.26a3.29,3.29,0,0,0-.05.54,2.81,2.81,0,0,0,2.65,2.81,2.81,2.81,0,0,0,0,.29,2.8,2.8,0,0,0,2.81,2.81H93v.06a2.8,2.8,0,0,0,2.81,2.81h.06v.06a2.81,2.81,0,0,0,4.8,2l1.11-1.11a2.84,2.84,0,0,0,.68-1.12,2.84,2.84,0,0,0,1.67.54,2.8,2.8,0,0,0,2-.82,2.73,2.73,0,0,0,.69-1.15,2.88,2.88,0,0,0,1.54.45,2.82,2.82,0,0,0,2-.82,2.86,2.86,0,0,0,.76-1.42,2.91,2.91,0,0,0,.89.14,2.78,2.78,0,0,0,2-.82,2.81,2.81,0,0,0,0-4Zm-7.3-7a4.42,4.42,0,0,0,1.83-3.59.78.78,0,0,0-1.56,0,2.86,2.86,0,0,1-1.4,2.46l-3-3a.79.79,0,0,0-1.11,0L97,88.74A1.25,1.25,0,0,1,95.21,87l3.05-3a2.51,2.51,0,0,1,1.79-.75h8l5.51,9.54,0,.07-3.08,3.07Zm-14,9a1.24,1.24,0,0,1-1.76,0,1.23,1.23,0,0,1,0-1.76l.67-.68a1.25,1.25,0,1,1,1.76,1.77Zm2.64,3.1a1.25,1.25,0,0,1-2.13-.88,1.27,1.27,0,0,1,.36-.88l1.11-1.11a1.25,1.25,0,0,1,.89-.37,1.24,1.24,0,0,1,.88,2.13Zm2.87,2.87a1.25,1.25,0,0,1-2.13-.88,1.27,1.27,0,0,1,.36-.88l1.11-1.11a1.25,1.25,0,0,1,.89-.37,1.24,1.24,0,0,1,.88,2.13Zm4,1.76L99.23,108a1.25,1.25,0,0,1-2.13-.88,1.25,1.25,0,0,1,.36-.88l1.11-1.11a1.25,1.25,0,0,1,.89-.37,1.21,1.21,0,0,1,.88.37A1.24,1.24,0,0,1,100.34,106.88Z" transform="translate(-80.32 -78.94)"/><path class="cls-3" d="M91.13,86.13l.66-1.2.83-1.35H92.3a1.87,1.87,0,0,0-.88-1.15l-2.75-1.59a1.9,1.9,0,0,0-1.42-.19,1.86,1.86,0,0,0-1.13.87l-5.55,9.61a1.88,1.88,0,0,0,.69,2.55L84,95.27a1.88,1.88,0,0,0,.93.25,1.39,1.39,0,0,0,.35,0l1.91-3.11ZM84.7,93.59a.3.3,0,0,1-.42.11l-2.76-1.59a.3.3,0,0,1-.14-.18.36.36,0,0,1,0-.24L87,82.09a.3.3,0,0,1,.18-.14h.08a.31.31,0,0,1,.15,0l2.76,1.59a.32.32,0,0,1,.11.42Z" transform="translate(-80.32 -78.94)"/><path class="cls-3" d="M120.07,89.48l-1-1.81a.79.79,0,0,0-1.07-.29.78.78,0,0,0-.28,1.07l1,1.81a.33.33,0,0,1,0,.23.3.3,0,0,1-.14.18l-2.76,1.59a.29.29,0,0,1-.41-.11l-5.55-9.6a.31.31,0,0,1,.11-.41l2.76-1.6a.31.31,0,0,1,.42.12l1,1.7a.78.78,0,1,0,1.35-.78l-1-1.71a1.87,1.87,0,0,0-2.55-.68l-2.76,1.59c-.37.22-1.94,1-2.09,1.35l7,13,1.35-1.28.22,0a1.83,1.83,0,0,0,.93-.25L119.39,92a1.88,1.88,0,0,0,.87-1.14A1.83,1.83,0,0,0,120.07,89.48Z" transform="translate(-80.32 -78.94)"/></svg>